<?xml version="1.0" encoding="utf-8"?>
<!-- Generator: Adobe Illustrator 23.0.0, SVG Export Plug-In . SVG Version: 6.00 Build 0)  -->
<svg version="1.1" id="Layer_1" xmlns="http://www.w3.org/2000/svg" xmlns:xlink="http://www.w3.org/1999/xlink" x="0px" y="0px"
	 viewBox="0 0 228.7 39.1" style="enable-background:new 0 0 228.7 39.1;" xml:space="preserve">
<style type="text/css">
	.st0{fill:#FED136;}
	.st1{fill:#FFFFFF;}
	.st2{font-family:'Tahu!';}
	.st3{font-size:28px;}
	.st4{fill:#DCBA9B;}
	.st5{fill:#E7CFBA;}
	.st6{fill:#ECDBCB;}
	.st7{fill:#CA9668;}
	.st8{fill:#282828;}
	.st9{fill:#CB9769;}
	.st10{fill:#A6805A;}
	.st11{fill:#A6815A;}
	.st12{fill:#CB9869;}
	.st13{fill:#A7815A;}
	.st14{fill:#C59D72;}
	.st15{fill:#A8835C;}
	.st16{fill:#A9845D;}
	.st17{fill:#B48D67;}
	.st18{fill:#B48E67;}
	.st19{fill:#B48D66;}
	.st20{fill:#5A5A5A;}
	.st21{fill:#513B32;}
	.st22{fill:#575757;}
	.st23{fill:#333735;}
	.st24{fill:#545856;}
	.st25{fill:#CB9768;}
	.st26{fill:#CA9769;}
	.st27{fill:#CB9A6F;}
	.st28{fill:#B6926E;}
	.st29{fill:#CA9768;}
	.st30{fill:#A8825C;}
	.st31{fill:#C9976A;}
	.st32{fill:#CFC7BE;}
	.st33{fill:#AA855F;}
	.st34{fill:#B6916C;}
	.st35{fill:#CB9562;}
	.st36{fill:#A57C51;}
	.st37{fill:#1C211E;}
	.st38{fill:#47291A;}
</style>
<path class="st0" d="M23.1,61.6c0.1,0.4,0.1,0.7,0.2,0.8c0,0.2,0.1,0.4,0,0.6c0,0.8-0.2,1.5-0.5,2.2c-0.3,0.6-0.8,1.1-1.4,1.4
	c-0.5-0.6-1.1-1.2-1.7-1.6c-0.7-0.5-1.5-0.8-2.3-1.1c-0.8-0.3-1.7-0.5-2.5-0.6C14,63.1,13.2,63,12.3,63c-0.8,0-1.6,0.1-2.3,0.2
	c-0.7,0.1-1.3,0.3-1.9,0.5c-0.5,0.2-0.9,0.5-1.3,0.8c-0.3,0.3-0.5,0.7-0.5,1.1c0.1,0.6,0.5,1.2,1,1.6c0.6,0.6,1.3,1.1,2.1,1.6
	c0.8,0.5,1.7,1,2.7,1.5s2,1,3,1.4c1.2,0.6,2.2,1.1,3.1,1.6c0.8,0.4,1.5,1,2.2,1.6c0.6,0.6,1,1.3,1.3,2c0.3,0.8,0.4,1.7,0.3,2.6
	c0,1.2-0.2,2.3-0.6,3.4c-0.4,1-1,2-1.8,2.7c-0.8,0.8-1.7,1.4-2.8,1.8c-1.2,0.4-2.4,0.7-3.6,0.7c-1.4,0-2.8-0.2-4.2-0.6
	c-1.5-0.4-2.9-0.9-4.3-1.7c-1.2-0.6-2.4-1.4-3.3-2.4C0.5,82.8,0,81.7,0,80.6c0-0.6,0.2-1.2,0.4-1.8c0.3-0.9,0.8-1.6,1.5-2.3
	C2,77.4,2.4,78.3,3,79c0.8,1.1,1.9,2,3.1,2.7c1.3,0.7,2.6,1.3,4,1.7c1.3,0.3,2.6,0.5,3.9,0.5c1.1,0,2.2-0.1,3.2-0.5
	c0.7-0.3,1.4-0.7,1.9-1.2c0.4-0.4,0.8-0.9,1-1.4c0.2-0.4,0.3-0.7,0.3-1.1c0-0.5-0.3-1-0.6-1.4c-0.5-0.5-1.1-0.9-1.7-1.3
	c-0.7-0.4-1.5-0.8-2.4-1.3c-0.9-0.4-1.9-0.8-2.9-1.3c-1.5-0.7-2.8-1.3-3.8-1.9c-0.9-0.5-1.8-1.1-2.7-1.8c-0.6-0.5-1.2-1.2-1.5-1.9
	c-0.3-0.7-0.5-1.5-0.5-2.3c0-1.3,0.4-2.7,1.2-3.7c0.9-1.2,2.1-2.2,3.5-2.7c0.8-0.3,1.6-0.6,2.4-0.7c0.8-0.1,1.7-0.2,2.5-0.2
	c1.5,0,3.1,0.2,4.6,0.6C20.1,60.4,21.6,61,23.1,61.6z"/>
<path class="st0" d="M25.9,71.9c-0.2-0.3-0.3-0.6-0.3-0.9c-0.1-0.4-0.1-0.8-0.1-1.2c0.6,0.1,1.2,0.1,1.8,0.2h1.6
	c0.4-0.7,0.7-1.4,1.1-2.1s0.8-1.3,1.2-1.9c0.3-0.5,0.7-1,1.1-1.4c0.2-0.3,0.5-0.5,0.8-0.8c0.3,0,0.6,0,0.9,0.1
	c0.4,0.1,0.7,0.2,1.1,0.3s0.7,0.3,1,0.4c0.2,0.1,0.5,0.2,0.6,0.4c-0.7,0.9-1.3,1.7-1.8,2.5s-1.1,1.6-1.7,2.6h1.4c0.5,0,1,0,1.5-0.1
	c0.1,0.1,0.2,0.3,0.3,0.4c0.1,0.2,0.1,0.4,0.1,0.6c-1.4,0.5-2.8,0.7-4.2,0.7c-0.6,1.1-1.1,2.3-1.6,3.4s-0.9,2.2-1.2,3.3
	c-0.3,1-0.5,1.9-0.7,2.9c-0.2,0.8-0.3,1.7-0.3,2.5c0,1,0.4,1.6,1.2,1.7c0.7-0.1,1.4-0.3,2-0.5s1.2-0.6,1.7-1
	c0.1,0.2,0.2,0.3,0.2,0.5c-0.2,0.3-0.4,0.5-0.7,0.7c-0.4,0.3-0.7,0.6-1.1,0.8c-0.4,0.3-0.8,0.5-1.2,0.7C30.3,86.8,30,87,29.7,87
	c-0.6,0-1.2-0.1-1.8-0.3c-0.6-0.2-1.1-0.5-1.6-0.9c-0.5-0.3-0.9-0.7-1.2-1.2c-0.3-0.4-0.4-0.8-0.5-1.3c0-0.7,0.1-1.4,0.2-2.1
	c0.1-0.9,0.4-1.8,0.6-2.8c0.3-1,0.6-2.1,1-3.2s0.8-2.2,1.2-3.3L25.9,71.9z"/>
<path class="st0" d="M48.5,71.2c0.3,0,0.6,0,0.8,0.1c0.3,0.1,0.6,0.2,0.9,0.3c0.2,0.1,0.4,0.2,0.7,0.4c0.2,0.1,0.3,0.3,0.3,0.4
	c-0.5,1-0.9,2-1.3,3s-0.7,2-1,2.9c-0.3,0.8-0.5,1.7-0.7,2.6C48.1,81.6,48,82.3,48,83c0,0.6,0.1,1.1,0.2,1.6c0.1,0.4,0.4,0.7,0.7,0.9
	c-0.3,0.2-0.7,0.4-1.1,0.5c-0.4,0.1-0.8,0.2-1.2,0.2c-1.3,0-1.9-0.9-1.9-2.6c0.1-1.9,0.6-3.8,1.4-5.5c-0.5,1-1,2-1.6,3
	c-0.6,0.9-1.2,1.7-1.9,2.5c-0.6,0.7-1.2,1.3-2,1.9c-0.5,0.4-1.1,0.7-1.8,0.8c-0.9,0-1.7-0.5-2.1-1.2c-0.6-0.9-0.9-1.9-0.8-3
	c0-1.4,0.3-2.9,0.8-4.2c0.6-1.4,1.3-2.8,2.2-4.1c0.8-1.2,1.8-2.2,2.9-3.1c0.8-0.8,1.9-1.2,3-1.3c0.3,0.1,0.6,0.2,0.8,0.4
	c0.3,0.2,0.6,0.5,0.8,0.7c0.3,0.3,0.5,0.6,0.7,0.9c0.2,0.2,0.3,0.5,0.3,0.8c-1.1,0.2-2.1,0.6-2.9,1.3c-1,0.8-2,1.8-2.7,2.8
	c-0.8,1.1-1.5,2.3-2,3.5c-0.5,1.1-0.8,2.3-0.8,3.5c0,0.4,0.2,0.7,0.5,0.8c0.9-0.3,1.8-0.9,2.4-1.8c1.2-1.5,2.3-3.1,3.3-4.8l0.8-1.4
	c0.3-0.5,0.6-1.1,0.9-1.6l0.9-1.7C48,72.3,48.2,71.7,48.5,71.2z"/>
<path class="st0" d="M52.1,84.7c0.1-0.7,0.3-1.6,0.6-2.7s0.6-2.3,1-3.6c0.4-1.3,0.8-2.5,1.3-3.8s0.9-2.4,1.3-3.4
	c0.2-0.6,0.5-1.2,0.8-1.7c0.2-0.4,0.5-0.7,0.8-1c0.3,0.1,0.7,0.1,1,0.3c0.3,0.1,0.7,0.3,1,0.4c0.3,0.2,0.6,0.3,0.9,0.5
	c0.2,0.1,0.4,0.3,0.6,0.5c-0.7,0.8-1.2,1.7-1.7,2.6c-0.5,1.2-1,2.4-1.4,3.6c1.3-1.1,2.4-2.2,3.4-3.3c1-1.1,1.9-2.2,2.7-3.5
	c0.2-0.1,0.5-0.2,0.7-0.2c0.3,0,0.7,0,1,0.2c0.3,0.1,0.5,0.2,0.6,0.4c-0.4,1.1-0.6,2.2-0.6,3.4c-0.1,0.8,0.1,1.6,0.5,2.3
	c-0.1,0.3-0.3,0.6-0.5,0.8c-0.3,0.4-0.6,0.8-1,1.1c-0.7-0.3-1.2-0.8-1.7-1.3c-0.5-0.6-0.9-1.2-1.1-1.9c-1,0.7-1.9,1.5-2.8,2.3
	c-0.8,0.7-1.4,1.6-2,2.5c-0.6,1-1.1,2-1.4,3.1c-0.4,1.2-0.8,2.6-1.1,4.2c-0.3,0-0.5-0.1-0.8-0.2s-0.6-0.3-0.9-0.5
	c-0.3-0.2-0.5-0.4-0.8-0.6C52.3,85.2,52.2,85,52.1,84.7z"/>
<path class="st0" d="M69.3,71.9C69.1,71.6,69,71.3,69,71c-0.1-0.4-0.1-0.8-0.1-1.2c0.6,0.1,1.2,0.1,1.8,0.2h1.6
	c0.3-0.7,0.7-1.4,1.2-2.1c0.4-0.7,0.8-1.3,1.2-1.9c0.3-0.5,0.7-1,1.1-1.4c0.2-0.3,0.5-0.6,0.8-0.8c0.3,0,0.6,0,0.9,0.1
	c0.4,0.1,0.7,0.2,1.1,0.3s0.7,0.3,1,0.4c0.2,0.1,0.5,0.2,0.6,0.4c-0.7,0.9-1.3,1.7-1.8,2.5s-1.1,1.6-1.7,2.6H78c0.5,0,1,0,1.5-0.1
	c0.1,0.1,0.2,0.3,0.3,0.4c0.1,0.2,0.1,0.4,0.1,0.6c-1.4,0.5-2.8,0.7-4.2,0.7c-0.6,1.1-1.1,2.3-1.6,3.4s-0.8,2.2-1.1,3.3
	c-0.3,1-0.6,1.9-0.8,2.9C72,82.1,72,83,71.9,83.8c0,1,0.4,1.6,1.2,1.7c0.7-0.1,1.4-0.3,2-0.5s1.2-0.6,1.7-1c0.1,0.2,0.2,0.3,0.3,0.5
	c-0.2,0.3-0.5,0.5-0.7,0.7c-0.4,0.3-0.7,0.6-1.1,0.8c-0.4,0.3-0.8,0.5-1.2,0.7c-0.3,0.1-0.6,0.2-0.8,0.3c-0.6,0-1.2-0.1-1.8-0.3
	c-0.6-0.2-1.1-0.5-1.6-0.9c-0.5-0.3-0.9-0.7-1.2-1.2c-0.3-0.4-0.5-0.8-0.5-1.3c0-0.7,0.1-1.4,0.2-2.1c0.2-0.9,0.4-1.8,0.7-2.8
	c0.3-1,0.6-2.1,1-3.2s0.8-2.2,1.2-3.3L69.3,71.9z"/>
<path class="st0" d="M112.6,65.9c0,1.4-0.4,2.8-1.2,3.9c-0.9,1.2-2,2.2-3.3,2.8c0.9,0.6,1.6,1.3,2.1,2.2c0.5,0.9,0.8,1.9,0.8,2.9
	c0,1.3-0.4,2.6-1.2,3.8c-0.8,1.3-1.9,2.4-3.1,3.3c-1.3,1-2.8,1.8-4.3,2.3c-1.6,0.6-3.3,0.9-5,0.9s-3.3-0.3-4.8-1
	c-1.3-0.7-2.5-1.7-3.2-3c0.2-0.7,0.5-1.6,0.9-2.6s0.8-2.2,1.3-3.3c0.5-1.2,1-2.3,1.4-3.5s0.9-2.2,1.4-3.1c0.9-2,1.7-3.7,2.4-5
	c0.6-1.1,1.3-2.2,2-3.2c-1.2,0.4-2.4,0.8-3.5,1.4c-0.8,0.4-1.6,0.9-2.3,1.5c-0.2-0.2-0.5-0.4-0.7-0.6c-0.2-0.3-0.4-0.6-0.6-0.9
	s-0.4-0.7-0.5-1c-0.1-0.3-0.2-0.6-0.2-1c0.7-0.5,1.6-0.9,2.4-1.2c1-0.4,2.1-0.7,3.2-1c1.2-0.3,2.4-0.5,3.6-0.7s2.3-0.2,3.5-0.2
	c2.3-0.1,4.7,0.5,6.7,1.7C111.8,62.3,112.7,64.1,112.6,65.9z M99.1,74.4c-0.5-0.2-0.9-0.6-1.2-1c-0.6,1.2-1.1,2.4-1.5,3.5
	c-0.5,1.2-0.9,2.2-1.3,3.2s-0.7,1.9-0.9,2.6c-0.2,0.5-0.3,1.1-0.4,1.7c0.4,0.2,0.8,0.3,1.2,0.4c0.6,0.1,1.1,0.2,1.7,0.2
	c1.6,0,3.1-0.2,4.6-0.7c1.4-0.4,2.7-1.1,3.9-1.9c1-0.7,1.9-1.6,2.7-2.6c0.6-0.9,1-2,1-3.1c0.1-1.4-0.7-2.8-2-3.4
	c-2,0.8-4.1,1.2-6.2,1.1h-0.8C99.6,74.5,99.3,74.5,99.1,74.4z M106,62.1c-0.5,0-1,0-1.6,0.1s-1.1,0.1-1.8,0.3
	c0.1,0.1,0.2,0.2,0.2,0.3s0.1,0.2,0.2,0.3c-0.3,0.4-0.5,0.8-0.8,1.2c-0.3,0.5-0.7,1.2-1,1.9c-0.3,0.7-0.8,1.5-1.2,2.4
	c-0.4,0.9-0.8,1.8-1.3,2.7c0.5-0.1,1-0.2,1.5-0.2c0.6-0.1,1.1-0.1,1.7-0.1c0.3,0,0.6,0,0.9,0s0.6,0.1,0.9,0.1c1-0.2,2.1-0.4,3.1-0.8
	c0.8-0.3,1.6-0.8,2.3-1.3c0.6-0.4,1.1-1,1.5-1.6c0.3-0.6,0.5-1.2,0.5-1.9c0.1-1-0.5-2-1.3-2.6C108.7,62.3,107.4,62,106,62.1z"/>
<path class="st0" d="M117.5,86.7c-1.3-0.1-2.4-0.7-3.2-1.8c-0.8-1.2-1.3-2.6-1.2-4c0-1,0.1-2,0.4-2.9c0.3-1,0.7-2,1.2-3
	s1.1-1.9,1.8-2.7c0.7-0.8,1.4-1.6,2.3-2.2c1-0.9,2.3-1.4,3.7-1.4c1,0.6,1.7,1.5,2.2,2.5h0.3h0.3c1.3,0,1.9,1.1,1.9,3.3
	c0,1.4-0.2,2.9-0.7,4.2c-0.5,1.3-1.1,2.5-2,3.6s-1.9,2-3.1,2.8C120.3,85.8,118.9,86.4,117.5,86.7z M119.3,75.5
	c-0.4,0.6-0.8,1.2-1.1,1.8c-0.3,0.6-0.7,1.3-0.9,1.9c-0.2,0.6-0.4,1.2-0.6,1.9c-0.1,0.5-0.2,1.1-0.2,1.6c0,0.6,0.1,1.1,0.3,1.6
	c0.2,0.5,0.4,0.8,0.6,0.9c1.1-0.2,2.1-0.7,2.9-1.3c0.9-0.7,1.7-1.5,2.3-2.4c0.7-1,1.2-2.1,1.5-3.3c0.4-1.3,0.6-2.6,0.6-3.9
	c0-0.5,0-1-0.1-1.4c-0.1-0.3-0.2-0.6-0.3-0.9c-1,0.3-2,0.8-2.8,1.5C120.7,74.1,120,74.8,119.3,75.5z"/>
<path class="st0" d="M133.1,86.7c-1.3-0.1-2.4-0.7-3.2-1.8c-0.9-1.2-1.3-2.6-1.2-4c0-1,0.1-2,0.4-2.9c0.3-1,0.7-2,1.2-3
	s1.1-1.9,1.8-2.7c0.7-0.8,1.4-1.6,2.3-2.2c1-0.9,2.3-1.4,3.6-1.4c1,0.6,1.7,1.5,2.2,2.5h0.3h0.3c1.3,0,1.9,1.1,1.9,3.3
	c0,1.4-0.2,2.9-0.7,4.2c-0.5,1.3-1.1,2.5-2,3.6s-1.9,2-3.1,2.8C135.9,85.8,134.5,86.4,133.1,86.7z M135,75.5
	c-0.4,0.6-0.8,1.2-1.1,1.8c-0.3,0.6-0.7,1.3-0.9,1.9s-0.4,1.2-0.6,1.9c-0.1,0.5-0.2,1.1-0.2,1.6c0,0.6,0.1,1.1,0.3,1.6
	s0.4,0.8,0.6,0.9c1.1-0.2,2-0.7,2.9-1.3c0.9-0.7,1.7-1.5,2.3-2.4c0.7-1,1.2-2.1,1.5-3.3c0.4-1.3,0.6-2.6,0.6-3.9c0-0.5,0-1-0.1-1.4
	c-0.1-0.3-0.2-0.6-0.4-0.9c-1,0.3-2,0.8-2.8,1.5C136.3,74.1,135.6,74.8,135,75.5z"/>
<path class="st0" d="M146.3,71.9c-0.2-0.3-0.3-0.6-0.3-0.9c-0.1-0.4-0.1-0.8-0.1-1.2c0.6,0.1,1.2,0.1,1.8,0.2h1.6
	c0.4-0.7,0.7-1.4,1.1-2.1c0.4-0.7,0.8-1.3,1.2-1.9c0.3-0.5,0.7-1,1.1-1.4c0.2-0.3,0.5-0.6,0.8-0.8c0.3,0,0.6,0,0.9,0.1
	c0.4,0.1,0.7,0.2,1.1,0.3s0.7,0.3,1,0.4c0.2,0.1,0.5,0.2,0.6,0.4c-0.7,0.9-1.3,1.7-1.8,2.5s-1.1,1.6-1.6,2.6h1.4c0.5,0,1,0,1.5-0.1
	c0.1,0.1,0.2,0.3,0.3,0.4c0.1,0.2,0.1,0.4,0.1,0.6c-1.4,0.5-2.8,0.7-4.2,0.7c-0.6,1.1-1.1,2.3-1.6,3.4s-0.9,2.2-1.2,3.3
	c-0.3,1-0.5,1.9-0.7,2.9c-0.2,0.8-0.3,1.7-0.3,2.5c0,1,0.4,1.6,1.2,1.7c0.7-0.1,1.4-0.3,2-0.5s1.2-0.6,1.7-1
	c0.1,0.2,0.2,0.3,0.3,0.5c-0.2,0.3-0.5,0.5-0.7,0.7c-0.4,0.3-0.7,0.6-1.1,0.8c-0.4,0.3-0.8,0.5-1.2,0.7c-0.3,0.1-0.6,0.2-0.9,0.3
	c-0.6,0-1.2-0.1-1.8-0.3c-0.6-0.2-1.1-0.5-1.6-0.9c-0.5-0.3-0.9-0.7-1.2-1.2c-0.3-0.4-0.4-0.8-0.5-1.3c0-0.7,0.1-1.4,0.2-2.1
	c0.1-0.9,0.4-1.8,0.6-2.8c0.3-1,0.6-2.1,1-3.2s0.8-2.2,1.2-3.3L146.3,71.9z"/>
<path class="st0" d="M168.9,71.3c0,0.5-0.1,0.9-0.2,1.4c-0.1,0.4-0.3,0.9-0.5,1.3s-0.4,0.7-0.6,1c-0.1,0.2-0.4,0.4-0.6,0.4
	c-0.3,0-0.4-0.2-0.5-0.5c0-0.1,0-0.2,0.1-0.3c0.1-0.2,0.1-0.3,0.2-0.5c0.1-0.2,0.1-0.4,0.2-0.6c0.1-0.2,0.1-0.3,0.1-0.5
	c0-0.3-0.1-0.6-0.2-0.8c-0.1-0.2-0.4-0.3-0.6-0.3c-0.9,0-1.7,0.6-2.2,1.8c-0.6,1.7-0.8,3.4-0.7,5.2c0,0.1,0,0.3,0,0.4h2.5
	c0,0.1,0,0.2,0,0.3c0,0.2,0,0.3-0.1,0.5l-1.3,0.3c-0.2,0.1-0.5,0.1-0.7,0.2c-0.1,0-0.2,0.1-0.3,0.2c0,0.1-0.1,0.2-0.1,0.3
	c0,0.2,0,0.4,0,0.6s0,0.4,0,0.7c0.1,1.7-0.5,3.4-1.6,4.8c-1.2,1.2-2.8,2-4.5,2.1c-0.3,0-0.7-0.1-1-0.3c-0.4-0.2-0.7-0.4-1-0.6
	c-0.3-0.3-0.6-0.5-0.8-0.9c-0.2-0.3-0.4-0.6-0.5-1c0-0.9,0.2-1.8,0.6-2.6c0.4-0.8,0.9-1.5,1.5-2.2c0.7-0.6,1.4-1.2,2.3-1.5
	c0.9-0.4,1.9-0.6,2.9-0.6c0-0.6-0.1-1.2-0.2-1.7c-0.1-0.6-0.2-1.1-0.4-1.7s-0.3-1.1-0.4-1.6c-0.1-0.5-0.2-1-0.2-1.5
	c0-0.7,0.1-1.3,0.4-1.9c0.2-0.6,0.6-1.2,1-1.7s0.9-1,1.5-1.4c0.5-0.4,1.1-0.6,1.8-0.8c0.4,0.1,0.7,0.4,1,0.6
	c0.5,0.4,0.9,0.7,1.3,1.2c0.4,0.4,0.8,0.8,1.1,1.3C168.5,70.5,168.7,70.9,168.9,71.3z M157.2,87.4c0.6-0.2,1.1-0.6,1.6-1
	c1-0.9,1.8-2,2.2-3.3c0.2-0.6,0.3-1.2,0.3-1.9c-0.6,0.1-1.1,0.3-1.6,0.7c-1.1,0.7-2.1,1.7-2.8,2.9c-0.3,0.4-0.5,0.9-0.5,1.4
	C156.5,86.7,156.8,87.2,157.2,87.4z"/>
<path class="st0" d="M171,71.9c-0.2-0.3-0.3-0.6-0.3-0.9c-0.1-0.4-0.1-0.8-0.1-1.2c0.6,0.1,1.2,0.1,1.8,0.2h1.6
	c0.4-0.7,0.7-1.4,1.1-2.1c0.4-0.7,0.8-1.3,1.2-1.9c0.3-0.5,0.7-1,1.1-1.4c0.2-0.3,0.5-0.6,0.8-0.8c0.3,0,0.6,0,0.9,0.1
	c0.4,0.1,0.7,0.2,1.1,0.3s0.7,0.3,1,0.4c0.2,0.1,0.5,0.2,0.6,0.4c-0.7,0.9-1.3,1.7-1.8,2.5s-1.1,1.6-1.6,2.6h1.4c0.5,0,1,0,1.5-0.1
	c0.1,0.1,0.2,0.3,0.3,0.4c0.1,0.2,0.1,0.4,0.1,0.6c-1.4,0.5-2.8,0.7-4.2,0.7c-0.6,1.1-1.1,2.3-1.6,3.4s-0.9,2.2-1.2,3.3
	c-0.3,1-0.5,1.9-0.7,2.9c-0.2,0.8-0.3,1.7-0.3,2.5c0,1,0.4,1.6,1.2,1.7c0.7-0.1,1.4-0.3,2-0.5s1.2-0.6,1.7-1
	c0.1,0.2,0.2,0.3,0.3,0.5c-0.2,0.3-0.5,0.5-0.7,0.7c-0.4,0.3-0.7,0.6-1.1,0.8c-0.4,0.3-0.8,0.5-1.2,0.7c-0.3,0.1-0.6,0.2-0.9,0.3
	c-0.6,0-1.2-0.1-1.8-0.3c-0.6-0.2-1.1-0.5-1.6-0.9c-0.5-0.3-0.9-0.7-1.2-1.2c-0.3-0.4-0.4-0.8-0.5-1.3c0-0.7,0.1-1.4,0.2-2.1
	c0.1-0.9,0.4-1.8,0.6-2.8c0.3-1,0.6-2.1,1-3.2s0.8-2.2,1.2-3.3L171,71.9z"/>
<path class="st0" d="M180.5,84.7c0.1-0.7,0.3-1.6,0.6-2.7s0.6-2.3,1-3.6c0.4-1.3,0.8-2.5,1.3-3.8s0.9-2.4,1.3-3.4
	c0.2-0.6,0.5-1.2,0.8-1.7c0.2-0.4,0.5-0.7,0.8-1c0.3,0.1,0.7,0.1,1,0.3c0.3,0.1,0.7,0.3,1,0.4c0.3,0.2,0.6,0.3,0.9,0.5
	c0.2,0.1,0.4,0.3,0.6,0.5c-0.7,0.8-1.2,1.7-1.7,2.6c-0.5,1.2-1,2.4-1.4,3.6c1.3-1.1,2.4-2.2,3.4-3.3c1-1.1,1.9-2.2,2.8-3.5
	c0.2-0.1,0.5-0.2,0.7-0.2c0.3,0,0.6,0.1,0.9,0.2c0.3,0.1,0.5,0.2,0.6,0.4c-0.4,1.1-0.6,2.2-0.6,3.4c0,0.8,0.1,1.6,0.5,2.3
	c-0.1,0.3-0.3,0.6-0.5,0.8c-0.3,0.4-0.6,0.8-1,1.1c-1.3-0.7-2.3-1.9-2.8-3.3c-1,0.7-1.9,1.5-2.8,2.3c-0.8,0.7-1.4,1.6-2,2.5
	c-0.6,1-1.1,2-1.4,3.1c-0.4,1.2-0.8,2.6-1.1,4.2c-0.3,0-0.5-0.1-0.8-0.2c-0.6-0.3-1.2-0.6-1.7-1.1C180.8,85.2,180.7,85,180.5,84.7z"
	/>
<path class="st0" d="M207.9,71.2c0.3,0,0.6,0,0.8,0.1c0.3,0.1,0.6,0.2,0.9,0.3c0.2,0.1,0.4,0.2,0.6,0.4c0.2,0.1,0.3,0.3,0.3,0.4
	c-0.5,1-0.9,2-1.3,3s-0.7,2-1,2.9c-0.3,0.8-0.5,1.7-0.6,2.6c-0.1,0.7-0.2,1.4-0.2,2.1c0,0.6,0.1,1.1,0.2,1.6
	c0.1,0.4,0.4,0.7,0.7,0.9c-0.3,0.2-0.7,0.4-1.1,0.5c-0.4,0.1-0.8,0.2-1.2,0.2c-1.3,0-1.9-0.9-1.9-2.6c0.1-1.9,0.6-3.8,1.3-5.5
	c-0.5,1-1,2-1.6,3c-0.6,0.9-1.2,1.7-1.9,2.5c-0.6,0.7-1.2,1.3-2,1.9c-0.5,0.4-1.1,0.7-1.8,0.8c-0.9,0-1.7-0.5-2.1-1.2
	c-0.6-0.9-0.9-1.9-0.8-3c0-1.4,0.3-2.9,0.9-4.2c0.6-1.4,1.3-2.8,2.2-4.1c0.8-1.2,1.8-2.2,2.9-3.1c0.8-0.8,1.9-1.2,3-1.3
	c0.3,0.1,0.6,0.2,0.8,0.4c0.3,0.2,0.6,0.5,0.9,0.7c0.3,0.3,0.5,0.6,0.7,0.9c0.2,0.2,0.3,0.5,0.3,0.8c-1.1,0.2-2.1,0.6-2.9,1.3
	c-1,0.8-2,1.8-2.7,2.8c-0.8,1.1-1.5,2.3-2,3.5c-0.5,1.1-0.8,2.3-0.8,3.5c0,0.4,0.2,0.7,0.5,0.8c0.9-0.3,1.8-0.9,2.4-1.8
	c1.2-1.5,2.3-3.1,3.3-4.8l0.8-1.4c0.3-0.5,0.6-1.1,0.9-1.6l0.9-1.7C207.3,72.3,207.6,71.7,207.9,71.2z"/>
<path class="st0" d="M209.7,97.2c-0.3-0.1-0.5-0.5-0.6-1.1c-0.1-0.4-0.2-0.7-0.2-1.1s-0.1-0.9-0.1-1.4c0-0.7,0.1-1.3,0.2-2
	c0.2-0.9,0.4-1.8,0.7-2.9s0.6-2.3,1.1-3.5s0.9-2.5,1.4-3.8c0.6-1.6,1.2-3,1.7-4.2s0.9-2.2,1.2-3.1s0.6-1.6,0.8-2.2s0.4-1,0.5-1.5
	c0.1-0.3,0.3-0.7,0.4-1c0.2-0.4,0.4-0.8,0.7-1.2c0.2-0.4,0.5-0.8,0.8-1.2c0.2-0.3,0.4-0.6,0.7-0.8c0.8,0.1,1.6,0.3,2.3,0.6
	c0.5,0.2,1,0.5,1.4,0.9c-0.4,0.4-0.8,0.9-1.1,1.4c-0.5,0.7-0.9,1.4-1.2,2.1c-0.4,0.8-0.8,1.6-1.1,2.4c-0.3,0.7-0.5,1.4-0.7,2.1
	c0.3-0.5,0.6-0.9,0.9-1.3c0.4-0.5,1-1.1,1.7-1.9s1.6-1.5,2.5-2.1c0.6-0.4,1.3-0.7,2-0.7c0.8,0,1.6,0.2,2.2,0.7
	c0.6,0.5,0.9,1.2,0.9,1.9c0,1.7-0.3,3.4-0.9,5c-0.5,1.6-1.4,3.2-2.4,4.5c-0.4,0.5-0.9,1-1.4,1.4c-0.5,0.5-1.1,0.9-1.7,1.3
	c-0.5,0.3-1.1,0.6-1.7,0.9c-0.5,0.2-1,0.3-1.5,0.3c-0.4,0-0.8-0.1-1.1-0.3c-0.3-0.1-0.5-0.4-0.6-0.7c1-0.6,1.9-1.4,2.7-2.3
	c0.9-1,1.7-2.1,2.4-3.3c0.8-1.3,1.4-2.7,1.9-4.1s1-2.9,1.3-4.5c-0.9,0.4-1.7,1-2.4,1.5c-0.8,0.6-1.5,1.4-2.2,2.2
	c-0.9,1-1.5,1.9-2,2.5s-0.9,1.2-1.2,1.6s-0.6,0.8-0.8,1.3c-0.2,0.4-0.4,0.9-0.6,1.4c-0.3,0.8-0.7,1.8-1.1,3s-0.9,2.6-1.4,4.2
	s-0.9,3.2-1.4,4.9c-0.5,1.7-0.9,3.5-1.3,5.2c-0.3-0.1-0.5-0.3-0.7-0.6c-0.2-0.2-0.3-0.4-0.4-0.5C210,97.3,209.8,97.2,209.7,97.2z"/>
<text transform="matrix(1 0 0 1 52.0998 28.0894)" class="st1 st2 st3">Choro</text>
<g>
	<path class="st4" d="M75.5-95.9c0-0.2,0-0.3,0-0.5l0,0C75.6-96.2,75.6-96.1,75.5-95.9L75.5-95.9z"/>
	<path class="st5" d="M75.5-96.4L75.5-96.4c0-0.1,0-0.1,0-0.2l0,0C75.6-96.5,75.5-96.5,75.5-96.4z"/>
	<path class="st6" d="M75.5-95.9L75.5-95.9c0.1,0.1,0.1,0.1,0,0.2l0,0C75.5-95.8,75.5-95.8,75.5-95.9z"/>
	<path class="st7" d="M110.9-91.5c0,0.2-0.1,0.3-0.2,0.4c-0.1,0.3-0.2,0.5-0.4,0.8c-0.1,0,0,0-0.1-0.1c-0.1-0.3-0.4-0.5-0.7-0.5
		h-0.1c-0.4,0-0.7,0.3-0.7,0.6c0,0.4,0.2,0.6,0.5,0.7c0.1,0,0.2,0,0.2,0c0.1,0,0.2,0,0.3,0h0.1c0,0.1-0.1,0.2-0.2,0.3
		c-0.2,0.3-0.4,0.5-0.5,0.8c-0.1,0-0.1-0.1-0.1-0.1c-0.1-0.3-0.3-0.4-0.6-0.5c-0.3,0-0.5,0.1-0.7,0.3c-0.3,0.4-0.5,0.8-0.8,1.2
		c-0.4,0.5-0.8,1-1.3,1.5c-0.8,0.8-1.7,1.6-2.6,2.2c-0.5,0.3-1,0.6-1.5,0.9c-0.6,0.3-1.3,0.6-1.9,0.9c-1.1,0.4-2.3,0.7-3.5,0.9
		c-0.5,0.1-1,0.1-1.5,0.1s-1.1,0-1.6,0c-1.3-0.1-2.5-0.3-3.8-0.6c-0.9-0.3-1.8-0.6-2.7-1c-1.1-0.6-2.2-1.2-3.2-2
		c-0.6-0.5-1.1-0.9-1.6-1.5c-1-1-1.8-2.2-2.5-3.4c-0.5-0.9-0.9-1.7-1.2-2.7c-0.3-0.9-0.6-1.9-0.7-2.8c-0.1-0.5-0.1-1-0.2-1.5
		c0-0.6,0-1.1,0-1.7c0-0.4,0-0.9,0.1-1.3c0-0.5,0.1-1,0.2-1.5c0.2-0.8,0.4-1.7,0.7-2.5c0.2-0.7,0.5-1.4,0.9-2
		c0.6-1.1,1.3-2.2,2.1-3.1c0.5-0.6,1-1.1,1.5-1.6c0.7-0.7,1.5-1.3,2.3-1.8c0.5-0.3,1.1-0.7,1.7-1c0.1,0,0.1-0.1,0.2-0.1
		s0.1,0,0.2-0.1l0,0c0.1,0,0.1,0,0.2-0.1c0.1,0,0.1,0,0.1-0.1c0,0,0.1,0,0.1-0.1c0.1-0.1,0.3-0.1,0.4-0.2h0.1c0.1,0,0.1,0,0.2-0.1
		l0,0c0.1,0,0.1,0,0.2-0.1c0.3-0.1,0.5-0.2,0.8-0.3c0,0,0,0,0.1,0s0.1,0.1,0.1,0.2c0.2,0.7,0.5,1.4,0.9,2c0.2,0.3,0.4,0.7,0.6,1
		c0.5,0.8,1.2,1.5,2,1.9c0.1,0.1,0.3,0.2,0.4,0.2c0.1,0.1,0.2,0.2,0.3,0.3c0.1,0.2,0.2,0.4,0.3,0.6c0.3,0.6,0.7,1.2,1.2,1.7
		c0.3,0.2,0.5,0.5,0.8,0.7c1.1,0.8,2.3,1.3,3.5,1.7c0.5,0.1,1,0.2,1.5,0.2c0.8,0,1.5-0.1,2.2-0.2s1.3-0.3,2-0.5s1.4-0.6,1.9-1.1
		c0.3-0.3,0.6-0.6,0.9-1c0,0,0-0.1,0.1-0.1s0.1,0.1,0.1,0.1c0.6,1.1,1.1,2.2,1.5,3.4c0.3,1,0.5,2,0.7,3c0.1,0.5,0.1,1,0.1,1.5
		c0,0.4,0,0.7,0,1.1c0,1.1-0.2,2.2-0.4,3.3c-0.1,0.6-0.3,1.2-0.5,1.8c-0.1,0.3-0.1,0.5,0.2,0.8c0.1,0.1,0.3,0.2,0.5,0.2
		c0,0,0,0,0.1,0s0.2,0,0.2,0c0.1,0,0.2,0,0.3-0.1C110.8-91.5,110.9-91.5,110.9-91.5z"/>
	<path class="st8" d="M89.3-113.9c-0.3,0.1-0.6,0.2-0.9,0.3c-0.1,0-0.1,0-0.2,0l0,0c-0.1,0-0.1,0-0.2,0.1h-0.1
		c-0.1,0.1-0.3,0.1-0.4,0.2l-0.1,0.1l-0.1,0.1c-0.1,0-0.1,0.1-0.2,0.1l0,0c0,0-0.1,0.1-0.2,0.1c-0.5,0.2-0.9,0.4-1.3,0.7
		c-1.4,0.8-2.7,1.9-3.8,3.1c-1.9,2.1-3.2,4.4-3.9,7.1c-0.2,0.8-0.4,1.7-0.5,2.6c-0.1,0.8-0.1,1.6-0.1,2.4c0.1,2.8,0.8,5.4,2.2,7.8
		c0.8,1.4,1.8,2.7,3,3.8c2.3,2.2,5,3.6,8.1,4.2c0.8,0.2,1.6,0.3,2.4,0.3c2.8,0.1,5.5-0.4,8.1-1.6c1.6-0.7,3-1.7,4.2-2.9
		c0.9-0.9,1.8-1.9,2.5-3c0.1-0.2,0.3-0.3,0.5-0.4c0.4-0.1,0.8,0.1,1,0.5c0,0,0,0,0,0.1c0,0.2-0.1,0.4-0.2,0.6
		c-0.4,0.7-0.9,1.3-1.4,2c-0.4,0.6-1,1.1-1.5,1.6c-0.5,0.4-1,0.9-1.5,1.2c-0.7,0.5-1.4,1-2.2,1.4c-0.9,0.5-1.9,0.9-2.9,1.2
		c-1,0.3-2,0.5-3,0.7c-0.6,0.1-1.1,0.1-1.7,0.1c-0.3,0-0.5,0-0.8,0c-0.6,0-1.2,0-1.8-0.1c-0.8-0.1-1.6-0.2-2.4-0.4
		c-1.1-0.3-2.1-0.6-3.1-1.1c-0.9-0.4-1.7-0.9-2.5-1.4c-0.7-0.4-1.3-0.9-1.9-1.5c-0.3-0.3-0.6-0.6-0.9-0.8c-0.7-0.7-1.3-1.4-1.8-2.2
		c-0.5-0.8-1-1.6-1.4-2.4s-0.7-1.7-1-2.6C77-93.1,76.8-94,76.7-95c0-0.4-0.1-0.8-0.1-1.1c0-0.4-0.1-0.8,0-1.2c0-0.6,0.1-1.3,0.1-1.9
		c0.2-1.3,0.4-2.5,0.9-3.7c0.2-0.6,0.4-1.1,0.7-1.7c0.5-1.1,1.1-2.1,1.8-3c0.2-0.3,0.5-0.6,0.8-0.9c1-1.1,2-2.1,3.2-2.9
		c1.7-1.2,3.5-2,5.5-2.6h0.1C89.5-113.9,89.4-113.9,89.3-113.9z"/>
	<path class="st9" d="M80.8-108.6c-0.1,0.2-0.3,0.4-0.4,0.6c-1.7,2.1-2.8,4.5-3.4,7.1c-0.2,0.9-0.3,1.8-0.4,2.7
		c-0.2,2.9,0.4,5.7,1.6,8.4c0.8,1.7,1.8,3.3,3.1,4.6c2.4,2.6,5.4,4.3,8.9,5.1c0.8,0.2,1.6,0.3,2.4,0.4s1.6,0.1,2.4,0
		c3.6-0.2,6.8-1.4,9.7-3.6c1-0.8,1.9-1.6,2.7-2.6c0,0,0,0,0.1-0.1c-0.1,0.2-0.3,0.5-0.4,0.7c-0.5,0.8-1.1,1.6-1.8,2.4
		c-0.5,0.6-1.1,1.1-1.8,1.6c-0.7,0.5-1.4,1-2.2,1.4c-0.8,0.4-1.6,0.6-2.5,0.8c-0.8,0.1-1.6,0.2-2.4,0.2c-0.7,0-1.5,0.1-2.2,0.1
		c-0.6,0-1.2,0-1.8,0c-0.2,0-0.3,0-0.5,0s-0.4,0-0.6,0c-0.3,0-0.7,0-1,0c-0.1,0-0.2,0-0.3,0c-0.1,0-0.1,0-0.2,0
		c-0.7,0-1.4-0.1-2-0.3c-0.8-0.2-1.6-0.6-2.3-1.1c-1.2-0.8-2.3-1.7-3.3-2.6c-1.5-1.4-2.9-2.8-4-4.6c-0.9-1.4-1.6-3-2.1-4.6
		c-0.3-1-0.5-2.1-0.7-3.1c0-0.2-0.1-0.5-0.1-0.7c0-0.1,0-0.1,0-0.2c0-0.2,0-0.4,0-0.5s0-0.1,0-0.2c0-0.9,0.2-1.9,0.5-2.7
		c0.4-1.4,0.8-2.7,1.3-4c0.5-1.4,1.3-2.6,2.3-3.8C79.9-107.6,80.3-108.1,80.8-108.6C80.8-108.5,80.8-108.5,80.8-108.6z"/>
	<path class="st9" d="M103-109.2c0,0.1-0.1,0.1-0.2,0.2s-0.2,0.1-0.2,0.2s-0.1,0.1-0.2,0.2c-0.1,0-0.1,0.1-0.2,0.2s-0.1,0.1-0.2,0.2
		s-0.2,0.1-0.2,0.2c0,0,0,0.1-0.1,0.1s-0.1,0.1-0.2,0.2c-0.4,0.3-0.8,0.5-1.3,0.5c-0.3,0-0.5-0.1-0.8-0.1c-0.3-0.1-0.7-0.2-1-0.2
		c-0.2,0-0.4,0-0.5,0c-0.6,0-1.1-0.4-1.4-0.9c-0.2-0.4-0.4-0.8-0.5-1.2c-0.1-0.3-0.1-0.6-0.2-1c-0.1-0.5-0.3-1-0.5-1.5
		c-0.2-0.4-0.3-0.8-0.3-1.2c0-0.3,0-0.5,0.1-0.7c0.1-0.1,0.2-0.3,0.3-0.4c0.3-0.2,0.6-0.3,0.9-0.3c0.1,0,0.1,0,0.2,0h0.1
		c0.1,0,0.1,0,0.2,0c0.2,0,0.4,0,0.6,0c0.1,0,0.1,0,0.2,0s0.1,0,0.2,0h0.1H98h0.1h0.1c0.2,0,0.5,0.1,0.7,0.1H99c0.1,0,0.2,0,0.3,0
		h0.1h0.1h0.1h0.1h0.1h0.1c0.1,0,0.1,0,0.2,0s0.1,0,0.2,0s0.1,0,0.2,0s0.1,0,0.2,0h0.1c0.4,0.1,0.7,0.1,1,0.3
		c0.5,0.2,0.8,0.6,1.1,1.1c0.3,0.6,0.5,1.2,0.7,1.8c0.1,0.3,0.1,0.5,0.2,0.8c0,0.1,0,0.1,0,0.2c0,0.2-0.1,0.4-0.3,0.6
		c-0.2,0.2-0.4,0.4-0.5,0.5C103.1-109.3,103-109.2,103-109.2z"/>
	<path class="st8" d="M110.3-91.3L110.3-91.3c-0.5,0-0.8-0.5-0.7-0.9c0.1-0.3,0.2-0.6,0.3-0.9c0.3-0.9,0.5-1.9,0.6-2.9
		c0-0.4,0.1-0.8,0.1-1.2c0-0.3,0-0.6,0-0.8c0-1.1-0.1-2.1-0.4-3.1c-0.2-1-0.5-2-1-2.9c-0.3-0.6-0.6-1.2-1-1.8
		c-0.1-0.2-0.2-0.3-0.3-0.5c0,0,0-0.1-0.1-0.1c-0.2,0-0.3,0.1-0.4,0.2c-0.6,0.3-1.1,0.7-1.6,1s-1.1,0.6-1.7,0.8
		c-0.3,0.1-0.7,0.1-1,0.2c-0.2,0-0.3,0-0.5,0c-0.6,0-1.3-0.1-1.9-0.2c-0.8-0.2-1.7-0.3-2.5-0.6c-0.3-0.1-0.7-0.2-1-0.4
		c-0.2-0.1-0.3-0.2-0.5-0.3c-0.3-0.2-0.7-0.4-1-0.6c-0.3-0.1-0.5-0.3-0.7-0.5c-0.1-0.1-0.2-0.3-0.3-0.4c-0.3-0.5-0.7-0.8-1.2-1.2
		c-0.4-0.3-0.8-0.6-1.2-0.9c-0.7-0.5-1.2-1.2-1.5-1.9c-0.4-0.7-0.7-1.5-1.1-2.2c-0.1-0.1-0.1-0.2-0.2-0.3l0,0
		c0.2,0.2,0.3,0.4,0.4,0.7c0.1,0.2,0.2,0.4,0.3,0.7c0.3,0.5,0.5,1.1,0.8,1.6c0.4,0.6,1,1.1,1.6,1.5c0.4,0.3,0.9,0.5,1.3,0.8
		s0.7,0.5,0.9,0.9c0.2,0.3,0.5,0.5,0.7,0.7c0.4,0.3,0.8,0.5,1.2,0.8c0.4,0.3,0.9,0.4,1.3,0.6c0.7,0.3,1.5,0.5,2.2,0.6
		c0.2,0.1,0.5,0.1,0.7,0.1h0.1c0.1,0,0.1,0,0.2,0s0.1,0,0.2,0s0.2,0,0.4,0c0.1,0,0.2,0,0.3,0c0.1,0,0.2,0,0.3,0c0.1,0,0.1,0,0.2,0
		h0.1h0.1c0.4,0,0.8-0.1,1.2-0.3c0.6-0.2,1.1-0.5,1.6-0.9s1-0.8,1.5-1.2c0.1-0.1,0.3-0.2,0.4-0.3c0.1-0.1,0.1-0.1,0.2,0
		c0.3,0.3,0.5,0.6,0.8,1c0.6,0.8,1.1,1.7,1.6,2.6c0.5,1.1,0.9,2.2,1.2,3.3c0.1,0.6,0.2,1.2,0.3,1.8v0.1v0.1v0.1v0.1v0.1
		c0,0.1,0,0.1,0,0.2s0,0.1,0,0.2s0,0.2,0,0.3c0,0.3,0,0.6,0,1c-0.1,1.6-0.4,3.2-0.9,4.7c-0.1,0.1-0.2,0.2-0.3,0.4
		c-0.1,0-0.2,0.1-0.4,0.1C110.5-91.3,110.4-91.3,110.3-91.3z"/>
	<path class="st10" d="M95.1-114.2c0,0.1-0.1,0.2-0.1,0.3c0,0.2,0,0.5,0,0.7c0.1,0.5,0.3,0.9,0.5,1.4s0.3,1,0.4,1.5s0.2,1,0.4,1.5
		c0.2,0.4,0.4,0.7,0.8,0.9c0.2,0.1,0.4,0.2,0.6,0.2c0.6,0,1.2,0.1,1.8,0.3c0.2,0.1,0.4,0.1,0.6,0.1c0.5,0,0.9-0.2,1.3-0.4
		c0.1-0.1,0.1-0.2,0.2-0.2c-0.3,0.2-0.5,0.5-0.8,0.7s-0.6,0.3-0.9,0.3c-0.4,0-0.8-0.1-1.2-0.2c-0.3-0.1-0.5-0.1-0.8-0.1
		c-0.1,0-0.1,0-0.2,0s-0.2,0-0.3,0h-0.1c-0.7,0-1.1-0.4-1.4-1c-0.2-0.4-0.3-0.8-0.4-1.3s-0.2-1-0.3-1.5c-0.1-0.3-0.2-0.6-0.3-0.8
		c-0.1-0.3-0.3-0.7-0.3-1.1c0-0.1,0-0.2,0-0.3C94.7-113.8,94.8-114,95.1-114.2z"/>
	<path class="st9" d="M90.6-116.8c0.4-0.1,0.8-0.3,1.2-0.4c0.2,0,0.3,0,0.4,0.2c0,0.1,0.1,0.2,0.1,0.3c0.1,0.3,0.2,0.6,0.3,0.8
		c0,0.1,0,0.1-0.1,0.2c-0.3,0.3-0.6,0.6-1,0.8c-0.1,0.1-0.3,0.1-0.4,0.1c-0.2-0.1-0.4-0.3-0.5-0.4s-0.2-0.3-0.3-0.5
		c-0.1-0.1-0.1-0.2-0.1-0.3c0.1-0.2,0.1-0.4,0.2-0.6C90.5-116.7,90.5-116.8,90.6-116.8z"/>
	<path class="st8" d="M109.4-90.9c0.3,0,0.5,0,0.7,0.3c0.1,0.1,0.1,0.2,0.2,0.4c0,0.4-0.2,0.6-0.5,0.8c-0.1,0-0.3,0-0.4,0
		c-0.3-0.1-0.6-0.3-0.6-0.6C108.8-90.4,109-90.7,109.4-90.9L109.4-90.9z"/>
	<path class="st9" d="M103.4-106.9c0.1-0.2,0.4-0.1,0.5,0s0.2,0.2,0.4,0.3c0.1,0,0.2,0.1,0.2,0.2s0.1,0.2,0.1,0.3c0,0.1,0,0.1,0,0.2
		s0,0.2,0.1,0.3c0.1,0.1,0,0.1-0.1,0.1c-0.2,0.1-0.3,0-0.4-0.1s-0.3-0.2-0.4-0.3c0,0-0.1,0-0.1-0.1c-0.2-0.1-0.3-0.2-0.2-0.5
		C103.5-106.6,103.5-106.7,103.4-106.9C103.4-106.8,103.4-106.9,103.4-106.9z"/>
	<g>
		<path class="st9" d="M107.6-110.2c-0.1,0.3-0.3,0.5-0.6,0.7c-0.1,0-0.2,0.1-0.2,0.1c-0.2,0.1-0.3-0.1-0.3-0.3
			c0-0.1,0.1-0.2,0.1-0.3c0.1-0.2,0.1-0.3-0.1-0.4c-0.1-0.1-0.3-0.1-0.4-0.2s-0.1-0.1-0.1-0.3c0.1-0.2,0.2-0.4,0.3-0.6
			c0,0,0,0,0-0.1c0.1-0.2,0.1-0.2,0.4-0.2c0.3,0.1,0.7,0.2,1,0.3l0,0c0.2,0.1,0.2,0.1,0.1,0.3c-0.1,0.2-0.1,0.3-0.1,0.5
			C107.6-110.3,107.6-110.2,107.6-110.2z"/>
		<path class="st11" d="M106.2-111.4c0,0.2-0.1,0.3-0.2,0.5v0.1c-0.1,0.2-0.1,0.2,0.1,0.4c0.1,0.1,0.2,0.1,0.3,0.2
			c0.1,0.1,0.2,0.2,0.1,0.3c0,0.1-0.1,0.2-0.1,0.3c-0.1,0.2,0.1,0.4,0.2,0.3c-0.1,0.1-0.2,0.1-0.3,0.2c-0.2,0-0.3-0.1-0.3-0.3
			c0-0.1,0.1-0.2,0.1-0.4v-0.1c-0.1-0.1-0.2-0.1-0.3-0.2c-0.1-0.1-0.2-0.1-0.2-0.1c-0.1-0.1-0.1-0.1-0.1-0.3
			c0.1-0.2,0.2-0.5,0.3-0.7C106-111.4,106-111.5,106.2-111.4L106.2-111.4z"/>
	</g>
	<path class="st11" d="M90.6-116.8c-0.2,0.2-0.2,0.5-0.3,0.7v0.1c0,0.1,0,0.2,0,0.3c0.2,0.2,0.3,0.5,0.6,0.7
		c0.1,0.1,0.2,0.1,0.2,0.2c-0.1,0-0.1,0-0.2,0.1c-0.1,0-0.1,0-0.1,0c-0.2-0.2-0.4-0.4-0.6-0.6c-0.2-0.4-0.3-0.3-0.1-0.8
		c0-0.1,0.1-0.2,0.1-0.3C90.2-116.7,90.4-116.8,90.6-116.8z"/>
	<path class="st12" d="M102.4-107c0-0.1,0.1-0.1,0.2-0.2c0.1,0,0.1,0,0.2,0c0.1,0.1,0.2,0.2,0.3,0.3c0.1,0,0.1,0.1,0.1,0.2
		s0,0.1-0.1,0.1s-0.2,0-0.2,0c-0.1-0.1-0.2-0.1-0.4-0.2C102.5-106.9,102.5-106.9,102.4-107z"/>
	<path class="st13" d="M103.4-106.9c0.1,0.1,0.1,0.3,0.1,0.5c-0.1,0.2,0,0.3,0.2,0.4s0.4,0.2,0.6,0.4c0.1,0.1,0.2,0.1,0.4,0.1
		c0,0.1-0.1,0.1-0.2,0.1s-0.2-0.1-0.3-0.2c-0.1-0.2-0.3-0.2-0.5-0.3c-0.1,0-0.2-0.1-0.3-0.2c0-0.1,0-0.1,0-0.2
		c0.1-0.1,0.1-0.3,0-0.4C103.3-106.8,103.3-106.9,103.4-106.9z"/>
	<path class="st14" d="M92.7-113.1c0.1,0,0.1-0.1,0.2-0.1s0.2,0,0.3,0c0.1,0.1,0.2,0.2,0.2,0.3c0,0.1,0,0.1,0,0.1l0,0
		c-0.1,0-0.2,0-0.2,0C92.9-112.7,92.7-112.9,92.7-113.1z"/>
	<path class="st15" d="M102.4-107C102.5-107,102.5-107,102.4-107c0.1,0.1,0.1,0.2,0.1,0.2c0.2,0.1,0.3,0.2,0.5,0.2
		c0,0.1-0.1,0.1-0.2,0.1c-0.2,0-0.3-0.1-0.4-0.2C102.4-106.8,102.4-106.9,102.4-107z"/>
	<path class="st16" d="M92.7-113.1c0,0.2,0.1,0.3,0.3,0.3c0.1,0,0.2,0,0.2,0h0.1c-0.1,0-0.2,0-0.3,0c-0.2,0-0.3-0.1-0.4-0.2
		C92.6-113,92.6-113,92.7-113.1z"/>
	<path class="st17" d="M101.8-108.1c0-0.1,0.1-0.2,0.2-0.2C102-108.2,101.9-108.1,101.8-108.1z"/>
	<path class="st17" d="M102.6-108.8c0-0.1,0.1-0.2,0.2-0.2C102.7-108.9,102.7-108.9,102.6-108.8z"/>
	<path class="st18" d="M103-109.2c0-0.1,0.1-0.2,0.2-0.2C103.1-109.3,103-109.2,103-109.2z"/>
	<path class="st19" d="M102.2-108.5c0-0.1,0.1-0.2,0.2-0.2C102.4-108.6,102.3-108.5,102.2-108.5z"/>
	<path class="st20" d="M89.8-113.8C89.8-113.8,89.7-113.9,89.8-113.8C89.7-113.9,89.8-113.8,89.8-113.8L89.8-113.8z"/>
	<path class="st21" d="M87.9-103.1c-0.4,0-0.7-0.1-1-0.3c-0.4-0.3-0.5-0.7-0.4-1.1s0.4-0.6,0.7-0.7c0.7-0.2,1.3,0,1.9,0.4
		c0.4,0.3,0.4,0.9,0,1.2C88.8-103.3,88.4-103.1,87.9-103.1z"/>
	<path class="st22" d="M108-106.5L108-106.5L108-106.5c0.3,0.4,0.6,0.9,0.9,1.4c0.4,0.8,0.8,1.6,1.1,2.5c0.2,0.7,0.4,1.5,0.5,2.3
		c0.1,0.5,0.1,1,0.2,1.4c0,0.5,0.1,1,0,1.5c0,0.5,0,0.9-0.1,1.4c-0.1,0.7-0.2,1.4-0.4,2c-0.1,0.6-0.3,1.2-0.6,1.7
		c-0.2,0.4,0.1,0.8,0.5,0.9c0,0,0,0,0.1,0c-0.3,0.1-0.7-0.1-0.8-0.5c0-0.1,0-0.3,0-0.4c0.3-0.8,0.5-1.6,0.6-2.4
		c0.1-0.5,0.1-0.9,0.2-1.4c0.1-0.7,0.1-1.4,0.1-2.1s-0.1-1.4-0.2-2.1c-0.2-1.1-0.4-2.2-0.8-3.3C109.1-104.5,108.6-105.5,108-106.5
		C108.1-106.4,108-106.4,108-106.5z"/>
	<path class="st21" d="M95.8-86.8c0-0.3,0-0.5,0.1-0.7c0.2-0.4,0.5-0.5,0.8-0.1c0.3,0.3,0.4,0.7,0.5,1.2c0.1,0.3,0.1,0.7,0,1
		s-0.3,0.4-0.6,0.3c-0.1,0-0.2-0.1-0.2-0.2C96-85.8,95.8-86.3,95.8-86.8z"/>
	<path class="st21" d="M88.4-86.9c0,0.5-0.2,0.9-0.6,1.2c-0.3,0.2-0.6,0.1-0.9,0c-0.3-0.2-0.3-0.4-0.3-0.7c0.1-0.5,0.3-0.8,0.7-1.1
		c0.4-0.3,0.9-0.1,1,0.4C88.4-87.1,88.4-87,88.4-86.9z"/>
	<path class="st21" d="M88.3-109c-0.1,0-0.2,0-0.2-0.1c-0.4-0.2-0.8-0.4-1.1-0.8c0-0.1-0.1-0.1-0.1-0.2c-0.1-0.2,0-0.3,0.2-0.3
		c0.1,0,0.3,0,0.4,0.1c0.3,0.1,0.6,0.3,0.8,0.6c0.1,0.1,0.2,0.3,0.2,0.4C88.5-109.1,88.5-109,88.3-109z"/>
	<path class="st21" d="M84-106.3c0-0.2,0.1-0.3,0.1-0.4c0.2-0.3,0.5-0.6,0.8-0.7c0.1-0.1,0.3-0.1,0.4-0.1c0.2,0,0.3,0.1,0.2,0.3
		c0,0.1-0.1,0.3-0.2,0.4c-0.2,0.3-0.5,0.5-0.8,0.7c-0.1,0-0.2,0.1-0.3,0.1C84-106,84-106.1,84-106.3z"/>
	<path class="st21" d="M94.8-84.6c-0.3,0-0.6,0-0.8-0.3c-0.2-0.1-0.1-0.3,0.1-0.3c0.4-0.1,0.8,0,1.1,0.1c0.1,0,0.2,0.1,0.2,0.2
		s-0.1,0.2-0.2,0.2C95.1-84.6,95-84.6,94.8-84.6z"/>
	<path class="st21" d="M92.7-87.2c-0.2,0-0.3-0.1-0.5-0.2s-0.3-0.3-0.4-0.5c0-0.1,0-0.2,0-0.2c0.1-0.1,0.1,0,0.2,0
		c0.3,0.1,0.6,0.4,0.8,0.6v0.1C92.9-87.3,92.8-87.2,92.7-87.2z"/>
	<path class="st22" d="M109.4-90.9c-0.3,0.1-0.5,0.2-0.5,0.5c-0.1,0.4,0.1,0.7,0.5,0.9c0,0,0,0,0.1,0c-0.4,0-0.7-0.2-0.8-0.6
		c0-0.4,0.2-0.8,0.6-0.8C109.3-90.9,109.4-90.9,109.4-90.9z"/>
	<path class="st22" d="M110.3-91.3c0.1,0,0.2,0,0.3,0C110.5-91.3,110.4-91.3,110.3-91.3z"/>
	<path class="st21" d="M99.7-110.4c-0.4,0-0.7-0.1-1-0.3c-0.4-0.3-0.4-0.7,0-1c0.4-0.4,1.2-0.4,1.6-0.1c0.3,0.2,0.3,0.5,0.3,0.8
		s-0.2,0.4-0.5,0.5C100-110.4,99.9-110.4,99.7-110.4z"/>
	<path class="st9" d="M91.8-101.9c0.1,0.2,0.1,0.4,0,0.5c-0.1,0.6-0.3,1.1-0.6,1.7c-0.3,0.7-0.6,1.3-1.1,2c-0.1,0.1-0.2,0.3-0.3,0.4
		C90.5-98.8,91.1-100.3,91.8-101.9z"/>
	<path class="st9" d="M104.6-94c0.3,0.1,0.6,0.1,0.8,0c0.1,0,0.2,0,0.2,0c0.1,0,0.1,0,0.1,0.1c-0.1,0.3-0.3,0.6-0.4,0.8
		c-0.1,0.1-0.2,0.3-0.4,0.4c0,0-0.1,0.1-0.2,0.1s-0.1,0-0.2-0.1c-0.1-0.2-0.1-0.5-0.1-0.7C104.4-93.5,104.4-93.7,104.6-94
		C104.5-94,104.5-94,104.6-94z"/>
	<g>
		<path class="st9" d="M83.4-97.6c0.3-0.3,0.5-0.7,0.8-1c0.2-0.1,0.3-0.2,0.5,0c0.1,0.1,0.2,0.1,0.3,0.2c0.2,0.2,0.5,0.4,0.7,0.6
			c0.1,0.1,0.1,0.1,0.1,0.2c-0.1,0.4-0.2,0.8-0.5,1.2c-0.1,0.1-0.2,0.2-0.3,0.4c-0.2,0-0.4,0-0.7-0.1c-0.2-0.1-0.3-0.1-0.5-0.2
			c-0.1,0-0.2-0.1-0.2-0.3c-0.1-0.2-0.1-0.4-0.2-0.6C83.3-97.4,83.3-97.5,83.4-97.6z"/>
		<path class="st11" d="M83.4-97.6c-0.1,0.3,0.1,0.5,0.1,0.8v0.1c0,0.1,0.1,0.2,0.2,0.3c0.3,0.1,0.6,0.2,0.9,0.3c0.1,0,0.2,0,0.3,0
			L84.8-96h-0.1c-0.3,0-0.6-0.1-0.8-0.2c-0.4-0.2-0.4-0.1-0.5-0.6c0-0.1-0.1-0.2-0.1-0.3C83.2-97.3,83.2-97.5,83.4-97.6z"/>
	</g>
	<g>
		<path class="st9" d="M88.1-92.7c-0.1,0.3-0.3,0.5-0.6,0.7c-0.1,0-0.2,0.1-0.2,0.1C87.1-91.8,87-92,87-92.2c0-0.1,0.1-0.2,0.1-0.3
			c0.1-0.2,0.1-0.3-0.1-0.4c-0.1-0.1-0.3-0.1-0.4-0.2s-0.1-0.1-0.1-0.3c0.1-0.2,0.2-0.4,0.3-0.6c0,0,0,0,0-0.1
			c0.1-0.2,0.1-0.2,0.4-0.2c0.3,0.1,0.7,0.2,1,0.3l0,0c0.2,0.1,0.2,0.1,0.1,0.3c-0.1,0.2-0.1,0.3-0.1,0.5
			C88.1-92.8,88.1-92.7,88.1-92.7z"/>
		<path class="st11" d="M86.7-93.9c0,0.2-0.1,0.3-0.2,0.5v0.1c-0.1,0.2-0.1,0.2,0.1,0.4c0.1,0.1,0.2,0.1,0.3,0.2
			c0.1,0.1,0.2,0.2,0.1,0.3c0,0.1-0.1,0.2-0.1,0.3c-0.1,0.2,0.1,0.4,0.2,0.3c-0.1,0.1-0.2,0.1-0.3,0.2c-0.2,0-0.3-0.1-0.3-0.3
			c0-0.1,0.1-0.2,0.1-0.4v-0.1c-0.1-0.1-0.2-0.1-0.3-0.2c-0.1-0.1-0.2-0.1-0.2-0.1C86-92.8,86-92.8,86-93c0.1-0.2,0.2-0.5,0.3-0.7
			C86.5-93.9,86.6-93.9,86.7-93.9L86.7-93.9z"/>
	</g>
	<path class="st21" d="M89.4-94.2c0,0.5-0.2,0.9-0.6,1.2c-0.3,0.2-0.6,0.1-0.9,0c-0.3-0.2-0.3-0.4-0.3-0.7c0.1-0.5,0.3-0.8,0.7-1.1
		c0.4-0.3,0.9-0.1,1,0.4C89.4-94.4,89.4-94.3,89.4-94.2z"/>
	<path class="st9" d="M89.6-96.5c0.3,0.3,0.7,0.5,0.9,0.8c0.1,0.2,0.2,0.3,0,0.5c-0.1,0.1-0.1,0.2-0.2,0.3c-0.2,0.2-0.4,0.5-0.6,0.7
		c-0.1,0.1-0.1,0.1-0.2,0.1c-0.4-0.1-0.8-0.2-1.2-0.5c-0.1-0.1-0.2-0.2-0.3-0.3c0-0.2,0-0.4,0.1-0.7c0.1-0.2,0.1-0.3,0.2-0.5
		c0-0.1,0.1-0.2,0.3-0.2c0.2-0.1,0.4-0.1,0.6-0.2C89.4-96.5,89.5-96.5,89.6-96.5z"/>
	<path class="st21" d="M85.6-96.6c-0.4,0-0.7-0.1-1-0.3c-0.4-0.3-0.4-0.7,0-1c0.4-0.4,1.2-0.4,1.6-0.1c0.3,0.2,0.3,0.5,0.3,0.8
		s-0.2,0.4-0.5,0.5C85.9-96.6,85.8-96.6,85.6-96.6z"/>
	<path class="st21" d="M101.8-94.9c-0.5,0-0.9-0.1-1.3-0.4c-0.5-0.3-0.6-0.8-0.5-1.4c0.1-0.5,0.5-0.8,0.9-0.9c0.9-0.2,1.7,0,2.4,0.5
		c0.5,0.4,0.5,1.2,0,1.6C103-95.1,102.4-94.9,101.8-94.9z"/>
	<path class="st21" d="M97.4-99.8c0-0.3,0-0.5,0.1-0.7c0.2-0.4,0.5-0.5,0.8-0.1c0.3,0.3,0.4,0.7,0.5,1.2c0.1,0.3,0.1,0.7,0,1
		s-0.3,0.4-0.6,0.3c-0.1,0-0.2-0.1-0.2-0.2C97.6-98.8,97.5-99.3,97.4-99.8z"/>
</g>
<path class="st23" d="M24.6,22.4c0.5-1,1.1-1.9,1.8-2.7c0.9-1.1,1.8-2.1,2.6-3.1c0.9-1.2,1.8-2.4,2.5-3.7c1-2,1.5-4.2,1.5-6.5
	c0-0.1,0-0.1-0.1-0.2c-0.8-0.6-1.7-1.1-2.6-1.6l-0.1-0.1c-0.4-0.3-0.9-0.5-1.4-0.7h-0.1c-0.2-0.1-0.4-0.2-0.6-0.3
	c-0.1,0-0.1-0.1-0.2-0.1c-0.6-0.3-1.2-0.5-1.8-0.8c-0.4-0.2-0.9-0.4-1.3-0.5c-0.1,0-0.1,0-0.2,0c-1.5-0.5-3.1-0.8-4.7-1
	c-1.5-0.1-3,0-4.5,0.3C13,1.9,10.9,3,9.1,4.6c-1.7,1.4-3,3-4,4.9c-1.7,3.2-2.5,6.6-2.7,10.2c-0.1,1.8,0.1,3.5,0.5,5.3
	C3.4,27,4,28.9,5,30.6c1.2,2,2.7,3.6,4.6,4.9c2.3,1.5,4.8,2.3,7.6,2.5c1.1,0.1,2.2,0.1,3.3,0c1-0.1,2-0.2,3-0.4
	c1.8-0.4,3.6-0.9,5.3-1.5c0.5-0.2,1-0.4,1.5-0.7c0.1-0.1,0.2-0.2,0.3-0.3c0.2-0.2,0.2-0.5,0-0.7c-0.1-0.1-0.3-0.3-0.5-0.3
	C30,34,29.9,34,29.8,33.9c-0.7-0.5-1.3-1.1-1.9-1.7c-1-1-1.9-2-2.7-3.2c-0.4-0.7-0.8-1.4-1-2.2c0-0.1,0-0.1,0-0.2
	c0-0.2-0.1-0.4-0.1-0.7c0-0.1,0-0.3-0.1-0.4c0-0.3,0-0.6,0-1c0.1-0.1,0.1-0.2,0.1-0.3v-0.1C24.2,23.5,24.4,23,24.6,22.4z M30,5.5
	C30,5.6,30,5.6,30,5.5c0.4,0.6,0.7,1,0.9,1.5c0.1,0.6,0.2,1,0.3,1.5c0,0.1,0,0.2,0,0.2C31.1,9,31.1,9.2,31,9.5l0,0
	c-0.1-0.7-0.1-1.4-0.4-2.1c-0.2-0.5-0.5-1-0.8-1.5c-0.2-0.3-0.4-0.6-0.6-0.9V4.9C29.5,5.1,29.8,5.3,30,5.5z M24.5,30.3
	c-0.1,0-0.1,0-0.2-0.1c-0.1,0-0.2-0.1-0.2,0c-0.1,0-0.1,0.1-0.1,0.2c0,0.3,0,0.5,0.2,0.7c0.1,0.2,0.2,0.3,0.4,0.3c0.1,0,0.1,0,0.2,0
	c0.1-0.1,0.3-0.2,0.4-0.3l0,0c0.2,0.3,0.4,0.6,0.6,0.9c0,0.1-0.1,0.1-0.1,0.1c-0.1,0.1-0.1,0.2-0.1,0.4c0,0.1,0.1,0.3,0.1,0.4
	c0.1,0.2,0.1,0.4,0.2,0.6c0,0.2,0.1,0.3,0.2,0.5s0.2,0.3,0.4,0.3c0.2,0,0.4,0,0.6,0.1c0.1,0,0.2,0,0.3,0c0.1,0,0.1,0,0.1,0.1
	c0,0.4-0.3,0.7-0.6,1c-0.5,0.4-1,0.6-1.5,0.7c-1.1,0.3-2.3,0.4-3.5,0.4c-2.2,0-4.4-0.5-6.6-1.2s-4.3-1.8-6.1-3.2
	c-2-1.6-3.5-3.5-4.5-5.8c-0.5-1.2-0.8-2.3-1-3.6c-0.1-0.8-0.1-1.6-0.1-2.4v-0.1c0.4,0.3,0.7,0.6,1.1,0.8v0.1
	c-0.1,0.1-0.1,0.3-0.1,0.4c0,0.6,0.1,1.1,0.3,1.7c0.2,0.7,0.5,1.4,0.8,2.1c0.1,0.3,0.3,0.5,0.4,0.8l0,0c0.2-0.4,0.5-0.6,0.9-0.8
	c1-0.6,2-0.9,3.1-1c0.4,0,0.9-0.1,1.3-0.1c0.4,0,0.7,0,1.1,0c0.2,0,0.4,0,0.6,0c0.1,0,0.1,0,0.1-0.1s0-0.2,0-0.3
	c0.4,0,0.8,0.1,1.2,0c0.1,0,0.3,0,0.4,0c0.2,0,0.4,0.1,0.6,0.2c0.1,0.1,0.2,0.1,0.3,0.2h0.1c0.1,0,0.1-0.1,0-0.2c0-0.1,0-0.2,0-0.3
	c0.2,0,0.4,0,0.6,0c0.1,0.1,0,0.1,0,0.2c0,0.3,0.1,0.5,0.3,0.7c0.2,0.1,0.3,0.3,0.5,0.4c0.4,0.2,0.7,0.5,1.1,0.7
	c0.4,0.3,0.9,0.5,1.4,0.7c0.5,0.1,1,0.3,1.4,0.5c0.6,0.3,1.3,0.4,1.9,0.4c0.1,0,0.1,0,0.2,0c0.1,0.3,0.3,0.6,0.4,0.9
	C23.9,29.2,24.2,29.8,24.5,30.3z M20.6,23.2c0.3-0.1,0.6-0.2,0.9-0.3c0.1,0,0.3-0.1,0.4,0c0,0.4,0.1,0.7,0.2,1.1
	c-0.1,0-0.1,0-0.2-0.1C21.5,23.6,21,23.4,20.6,23.2L20.6,23.2z M21.3,21.2c-1.5,0.6-3,1.1-4.6,1.3c-0.7,0.1-1.4,0.1-2.1,0.1
	c-0.5,0-0.9-0.1-1.4-0.1c-1-0.1-1.9-0.3-2.8-0.5c-1.4-0.3-2.7-0.8-3.9-1.5c-0.9-0.5-1.6-1.2-2.1-2.1c-0.5-0.8-0.7-1.7-0.6-2.6
	c0.1-1.3,0.5-2.4,1.1-3.5c0.8-1.4,1.8-2.6,3-3.7C8.5,8,9.2,7.5,9.9,7c0,0,0.1,0,0.1-0.1l0,0C9.5,7.2,9,7.6,8.6,8
	C8,8.6,7.5,9.2,7,9.9c-0.2,0.2-0.3,0.5-0.5,0.7s-0.3,0.5-0.3,0.8c-0.1,0.5-0.2,1-0.2,1.4s-0.1,0.9,0,1.3c0.1,0.4,0.3,0.8,0.6,1.1
	c0.2,0.2,0.4,0.4,0.5,0.6c0.3,0.3,0.5,0.6,0.7,1c0.3,0.5,0.5,1,0.9,1.4c0.3,0.3,0.5,0.7,0.6,1.1c0.2,0.5,0.5,1,0.9,1.3
	c0,0,0.1,0.1,0.2,0.1c1.2,0.3,2.4,0.6,3.6,0.8c0.9,0.2,1.8,0.2,2.7,0.2c1.7-0.1,3.4-0.5,4.9-1.2c1-0.5,1.9-1,2.8-1.6
	c0.4-0.2,0.7-0.4,1.2-0.5c0.1,0,0.2-0.1,0.3-0.1l0,0C24.5,19.5,23,20.5,21.3,21.2z"/>
<path class="st23" d="M34.2,10.1c-0.1-0.1-0.1-0.2,0-0.3c0.1-0.2,0.1-0.5,0.2-0.7c0-0.1,0.1-0.2,0.2-0.3c0.1-0.1,0.3-0.2,0.5-0.1
	c0.2,0.1,0.3,0.2,0.4,0.3c0.3,0.3,0.5,0.6,0.7,1c0.6,1,1,2.1,1.4,3.2c0.5,1.3,0.8,2.7,1.1,4c0.1,0.4,0.1,0.9,0.2,1.3v0.1l0,0
	c0,0.1,0,0.1,0,0.2s0,0.3,0,0.4s0,0.1,0,0.2s0,0.2,0,0.3c-0.2,3.4-1,6.6-2.5,9.7c-0.4,0.9-1,1.7-1.7,2.4c-0.5,0.5-1,0.9-1.7,1.1
	s-1.3,0.2-1.9-0.1c0-0.1,0.1-0.1,0.1-0.1c0.9-0.7,1.7-1.5,2.4-2.4c0,0,0-0.1,0.1-0.1c0,0,0,0,0-0.1c0.1-0.1,0.2-0.3,0.3-0.4
	s0.1-0.2,0.2-0.3c0-0.1,0.1-0.1,0.1-0.2c0.5-0.7,0.8-1.4,1.2-2.1c0.6-1.2,1-2.5,1.3-3.8c0.2-0.7,0.3-1.5,0.4-2.3
	c0-0.5,0.1-0.9,0.1-1.4c0-1.1,0-2.2-0.2-3.3v-0.1c0-0.1,0-0.2-0.1-0.4c-0.1-0.2-0.1-0.4-0.1-0.5c-0.2-0.9-0.5-1.9-0.9-2.8
	c-0.4-0.9-0.9-1.8-1.5-2.7C34.2,10.2,34.2,10.1,34.2,10.1z"/>
<path class="st24" d="M38.9,19.3c0-0.1,0-0.3,0-0.4l0,0C38.9,19,38.9,19.2,38.9,19.3z"/>
<path class="st25" d="M36.9,16.6c0.1,0.5,0.2,1.1,0.2,1.6c0,0.6,0.1,1.1,0,1.7c0,1.2-0.2,2.4-0.4,3.6c-0.3,1.5-0.9,3-1.6,4.4
	c-0.3,0.6-0.7,1.2-1.1,1.8c-0.1,0-0.1,0-0.2,0c-0.8,0.1-1.6,0.2-2.4,0.1c-1.1-0.1-2.3-0.3-3.3-0.7c-0.5-0.2-1-0.5-1.5-0.8
	c0,0,0,0-0.1-0.1c-0.5-0.8-1-1.7-1.4-2.6c-0.1-0.5-0.2-1-0.1-1.6c0-0.2,0-0.3,0-0.5s0.1-0.4,0.1-0.5c0.2-0.5,0.4-1,0.6-1.5
	s0.5-0.8,0.7-1.2c0.6-0.8,1.3-1.5,1.9-2.4c0.3-0.4,0.6-0.9,0.9-1.3c0.2-0.3,0.4-0.6,0.7-0.9c0-0.1,0.1-0.1,0.2-0.1
	c0.4-0.3,0.8-0.5,1.3-0.7c0.9-0.4,1.9-0.3,2.8,0.1c0.5,0.2,1,0.6,1.5,0.8C36.2,16.1,36.6,16.3,36.9,16.6L36.9,16.6z"/>
<path class="st9" d="M34.2,10.1c0.3,0.3,0.5,0.7,0.7,1.1c0.9,1.5,1.5,3.2,1.9,4.9v0.1c-0.8-0.5-1.5-0.9-2.3-1.4
	c-0.6-0.3-1.3-0.5-2.1-0.4c-0.5,0-0.9,0.2-1.3,0.4c0,0-0.1,0-0.1,0.1l0,0c0.1-0.1,0.2-0.3,0.3-0.4c0.3-0.4,0.6-0.9,0.8-1.4
	c0.2-0.4,0.3-0.8,0.5-1.2c0.1-0.2,0.2-0.4,0.3-0.7c0.2-0.6,0.6-0.9,1.1-1C34.1,10.1,34.2,10.1,34.2,10.1z"/>
<path class="st9" d="M33.9,29.9c-0.1,0.1-0.2,0.3-0.3,0.4c0,0,0,0-0.1,0c-0.2,0.1-0.4,0.3-0.6,0.4c-0.4,0.3-0.6,0.6-0.9,1
	c-0.2,0.4-0.5,0.6-1,0.5c-0.3,0-0.7,0-1-0.1c-0.4-0.1-0.7-0.3-1-0.5c-0.5-0.3-0.8-0.8-1.1-1.3c-0.3-0.5-0.6-1-0.9-1.5c0,0,0,0,0-0.1
	c0.1,0.1,0.3,0.1,0.4,0.2c0.8,0.4,1.6,0.6,2.4,0.7c0.8,0.2,1.6,0.2,2.5,0.2C32.8,30.1,33.4,30,33.9,29.9z"/>
<path class="st9" d="M28.2,3.5c-0.3-0.1-0.5-0.2-0.8-0.4c-0.8-0.4-1.6-0.7-2.5-1c0,0,0,0-0.1,0c0.4,0,0.7,0.1,1.1,0.2
	c0.5,0.1,1,0.3,1.4,0.5S27.9,3.2,28.2,3.5z"/>
<path class="st12" d="M30.4,4.6c-0.3-0.2-0.6-0.3-0.9-0.5C29.2,4,29,3.9,28.8,3.8c0-0.1,0-0.1-0.1-0.1l-0.1-0.1l0,0
	c0.5,0.3,1,0.6,1.5,0.9C30.2,4.5,30.3,4.5,30.4,4.6z"/>
<path class="st26" d="M24.1,26.6C24,26.2,24,25.9,24,25.5c0.1,0.2,0.3,0.5,0.2,0.8C24.2,26.3,24.2,26.4,24.1,26.6
	C24.2,26.5,24.2,26.6,24.1,26.6z"/>
<path class="st27" d="M24,24.5c0-0.1,0-0.2,0.1-0.3c0.1,0.1,0.1,0.2,0.1,0.2C24.1,24.6,24,24.6,24,24.5z"/>
<path class="st28" d="M24.1,26.6c0-0.1,0-0.2,0.1-0.3c0,0.2,0,0.3,0,0.5C24.1,26.7,24.1,26.6,24.1,26.6z"/>
<path class="st29" d="M31,9.6c-0.3,1.1-0.6,2.1-1.1,3.1c-0.6,1.4-1.4,2.6-2.4,3.8c-0.5,0.6-1,1.2-1.6,1.7c0,0-0.1,0-0.1,0.1
	c-0.1,0.1-0.3,0.1-0.4,0.2c-0.3,0.1-0.6,0.2-0.9,0.4c-0.5,0.3-1,0.7-1.5,1c-1.3,0.8-2.6,1.3-4.1,1.7c-0.5,0.1-1,0.2-1.5,0.2
	s-1,0.1-1.5,0.1c-0.8,0-1.6-0.1-2.3-0.2c-0.9-0.2-1.8-0.4-2.7-0.6c-0.1,0-0.2-0.1-0.3-0.1c-0.3,0-0.5-0.2-0.6-0.4
	c-0.3-0.4-0.6-0.8-0.8-1.3c-0.1-0.4-0.3-0.7-0.6-1C8.3,17.9,8,17.5,7.8,17s-0.5-0.9-0.9-1.2c-0.3-0.3-0.6-0.6-0.8-0.9
	c-0.2-0.3-0.2-0.6-0.3-0.9c0-0.9,0.2-1.8,0.3-2.6c0-0.2,0.1-0.4,0.2-0.5c0.5-0.9,1-1.5,1.5-2.1c0.6-0.7,1.3-1.3,2-1.9l0.1-0.1
	c0.2-0.1,0.4-0.3,0.6-0.4C10.8,6.2,11,6,11.3,5.9c0.4-0.2,0.7-0.4,1.1-0.6c0.1,0,0.1-0.1,0.2-0.1c0,0,0.1,0,0.1-0.1
	c0.6-0.3,1.3-0.7,2-0.9C16,3.7,17.4,3.3,18.8,3c0.7-0.1,1.4-0.2,2.1-0.2c0.5,0,1,0,1.4,0c2.5,0.1,4.8,0.8,6.8,2.2l0.1,0.1
	c0.1,0.2,0.2,0.3,0.3,0.5C29.8,6,30,6.5,30.3,6.9c0.3,0.5,0.4,1.1,0.5,1.7C30.9,8.8,31,9.2,31,9.6C31,9.5,31,9.6,31,9.6z"/>
<path class="st9" d="M13.1,24.1c0,0.1,0,0.2,0,0.3c0,0.1,0,0.1-0.1,0.1c-0.5,0-1,0-1.5,0c-1,0-2,0.1-2.9,0.4C7.8,25.1,7,25.5,6.4,26
	c-0.2,0.1-0.3,0.3-0.4,0.5c-0.1-0.2-0.2-0.4-0.3-0.5c-0.6-1-1-2.2-1.3-3.3c-0.1-0.4-0.1-0.8,0-1.1c0-0.1,0-0.1,0.1-0.2
	c1.5,1,3.2,1.7,4.9,2.2c0.8,0.2,1.7,0.4,2.6,0.5C12.4,24,12.7,24.1,13.1,24.1z"/>
<path class="st9" d="M16.4,24.3c0-0.1,0-0.2,0-0.2c1.4-0.1,2.7-0.4,4.1-0.8c0.1,0,0.1,0,0.2-0.1c0.2,0,0.3,0.1,0.5,0.2
	c0.3,0.1,0.6,0.3,0.9,0.5c0,0,0,0,0.1,0.1c0.2,1.2,0.5,2.3,1,3.5v0.1h-0.1c-0.7,0-1.3-0.1-1.9-0.4c-0.5-0.2-1-0.4-1.5-0.5
	c-0.6-0.2-1.1-0.4-1.5-0.8c-0.4-0.3-0.7-0.5-1.1-0.8c-0.2-0.1-0.4-0.3-0.5-0.5C16.4,24.5,16.4,24.4,16.4,24.3z"/>
<path class="st9" d="M25.6,32.2l0.1-0.1c0.1,0.1,0.2,0.3,0.3,0.4c0.2,0.3,0.5,0.5,0.7,0.8s0.4,0.5,0.4,0.9c0,0.1,0,0.1,0,0.2H27
	c-0.2-0.1-0.4-0.1-0.7-0.1c-0.2,0-0.4-0.2-0.5-0.3s-0.1-0.3-0.1-0.4c0-0.3-0.1-0.5-0.2-0.8c0-0.1-0.1-0.2-0.1-0.3
	C25.6,32.4,25.6,32.3,25.6,32.2z"/>
<path class="st11" d="M16.4,24.3c0.1,0.3,0.4,0.6,0.7,0.8c0.4,0.2,0.8,0.5,1.1,0.8c0.4,0.3,0.8,0.5,1.3,0.7c0.7,0.2,1.3,0.5,2,0.7
	c0.3,0.1,0.6,0.2,1,0.2c0.2,0,0.4,0,0.6,0c0,0.1,0.1,0.1,0.1,0.2c-0.4,0.1-0.8,0-1.2-0.1c-0.4-0.1-0.8-0.2-1.2-0.4
	c-0.4-0.2-0.8-0.3-1.1-0.4c-0.6-0.2-1.1-0.4-1.6-0.8c-0.4-0.3-0.8-0.5-1.1-0.8C16.6,25.1,16.3,24.8,16.4,24.3z"/>
<path class="st9" d="M31.2,8.8C31.1,8,31,7.2,30.6,6.5c-0.2-0.3-0.4-0.6-0.6-1c0.1,0,0.2,0.1,0.3,0.2c0.4,0.4,0.8,0.7,1.1,1.1
	c0.1,0.1,0.1,0.1,0,0.2c0,0.5-0.1,1-0.2,1.5C31.2,8.6,31.2,8.7,31.2,8.8z"/>
<path class="st9" d="M24.1,30.2c0-0.1,0.1-0.1,0.2-0.1s0.2,0.1,0.3,0.1c0.2,0.3,0.4,0.6,0.6,0.9c-0.1,0.1-0.3,0.2-0.4,0.3
	c-0.2,0-0.4-0.1-0.5-0.3C24,31,24,30.7,24,30.3C24,30.3,24,30.3,24.1,30.2z"/>
<path class="st11" d="M25.6,32.2c-0.1,0.3,0.1,0.5,0.2,0.8c0.1,0.2,0.1,0.4,0.2,0.7c0,0.1,0.1,0.3,0.2,0.4c0.1,0.2,0.3,0.2,0.5,0.2
	s0.5,0.1,0.7,0.1c0,0.1,0,0.1,0,0.2c0,0,0-0.1-0.1-0.1s-0.3,0-0.4-0.1c-0.1,0-0.2-0.1-0.4-0.1c-0.2,0-0.4-0.1-0.5-0.3
	c-0.1-0.1-0.1-0.3-0.1-0.5s-0.1-0.5-0.2-0.7c-0.1-0.1-0.1-0.3-0.1-0.5C25.5,32.4,25.5,32.3,25.6,32.2z"/>
<path class="st12" d="M15.8,24.1c0,0.1,0,0.2,0,0.3c0,0.1,0,0.1-0.1,0.1s-0.2,0-0.3-0.1s-0.2-0.2-0.3-0.2l0,0h0.1
	C15.4,24.2,15.6,24.1,15.8,24.1z"/>
<path class="st30" d="M15.2,24.2h-0.1c0.2,0.1,0.3,0.1,0.4,0.3c0.1,0.1,0.2,0.1,0.3,0.1c0,0.1-0.1,0-0.1,0c-0.1,0-0.2-0.1-0.3-0.2
	c-0.2-0.2-0.4-0.3-0.7-0.3c-0.1,0-0.3,0-0.4,0C14.6,24.2,14.9,24.2,15.2,24.2z"/>
<path class="st31" d="M21.9,22.8c-0.1,0-0.3,0.1-0.4,0c0.1-0.1,0.3-0.1,0.4-0.2C21.9,22.7,21.9,22.8,21.9,22.8z"/>
<path class="st32" d="M25.9,18.3L25.9,18.3C25.9,18.2,25.9,18.2,25.9,18.3C25.9,18.2,25.9,18.3,25.9,18.3z"/>
<path class="st21" d="M34.5,27.4c0,0.4-0.2,0.8-0.5,1.1c-0.4,0.4-1.1,0.2-1.3-0.4c-0.1-0.3,0-0.6,0.2-0.9s0.4-0.5,0.6-0.7
	c0.3-0.2,0.7-0.1,0.8,0.3C34.5,27,34.5,27.2,34.5,27.4z"/>
<path class="st21" d="M32.1,19.7c-0.4,0-0.8-0.1-1.1-0.4c-0.3-0.3-0.3-0.7,0.1-1c0.5-0.3,1-0.4,1.5-0.1c0.4,0.2,0.6,0.8,0.3,1.2
	C32.7,19.6,32.5,19.7,32.1,19.7C32.2,19.7,32.1,19.7,32.1,19.7z"/>
<path class="st21" d="M11.8,11.9c0-0.9,0.3-1.7,0.9-2.4c0.1-0.1,0.3-0.2,0.4-0.3C13.5,9,13.8,9.1,14,9.5c0.2,0.3,0.2,0.6,0.2,0.9
	c0.1,0.8-0.1,1.6-0.5,2.4c-0.1,0.3-0.3,0.6-0.6,0.8c-0.1,0.1-0.3,0.2-0.4,0.2c-0.3,0-0.4-0.1-0.6-0.3c-0.3-0.4-0.4-0.8-0.5-1.3
	C11.8,12.1,11.8,12,11.8,11.9z"/>
<path class="st21" d="M24.5,8.7c-0.3,0-0.6-0.1-0.9-0.3S23,8,22.8,7.6c0-0.1-0.1-0.2-0.1-0.3c0-0.2,0.1-0.3,0.2-0.3
	c0.2,0,0.4,0.1,0.5,0.1c0.4,0.2,0.8,0.5,1.2,0.8c0.1,0.1,0.2,0.2,0.2,0.3C24.9,8.5,24.8,8.7,24.5,8.7L24.5,8.7z"/>
<path class="st21" d="M18.7,17.9c0,0.1,0,0.3-0.2,0.4s-0.3,0-0.4-0.1c-0.4-0.4-0.6-0.9-0.6-1.5c0-0.1,0-0.2,0.1-0.3
	c0.1-0.2,0.2-0.2,0.4-0.1c0.1,0.1,0.3,0.3,0.4,0.4C18.5,17.1,18.7,17.5,18.7,17.9z"/>
<path class="st25" d="M6.2,27.2c0-0.4,0.1-0.7,0.5-0.9c0.8-0.5,1.7-0.9,2.7-1.1c0.7-0.1,1.4-0.2,2.1-0.2c0.5,0,1,0,1.6,0
	c1.5,0,2.8,0.5,4,1.2c0.2,0.1,0.4,0.3,0.6,0.4c0.5,0.4,1,0.6,1.5,0.8c0.3,0.1,0.6,0.2,0.9,0.4c0.3,0.2,0.5,0.5,0.7,0.8
	c0.3,0.4,0.6,0.9,1,1.2c0.3,0.3,0.6,0.5,0.9,0.8c0.4,0.4,0.8,0.8,0.9,1.3c0.2,0.5,0.5,0.9,0.8,1.3c0.4,0.5,0.5,1,0.5,1.6
	c0,0.2,0,0.3-0.1,0.5s-0.3,0.3-0.5,0.4c-0.1,0.1-0.3,0.1-0.4,0.2c-0.1,0.1-0.3,0-0.4,0c-0.2,0-0.5,0-0.7,0c-0.5,0-0.9-0.1-1.4-0.1
	c-0.9-0.1-1.9-0.3-2.8-0.5c-0.8-0.2-1.6-0.5-2.4-0.7c-0.6-0.2-1.3-0.3-1.9-0.5c-1-0.3-1.9-0.8-2.8-1.4c-0.9-0.6-1.7-1.2-2.5-1.8
	c-0.7-0.6-1.4-1.3-2-2.1c-0.2-0.3-0.4-0.6-0.5-1c-0.1-0.2-0.1-0.3-0.2-0.5C6.2,27.4,6.2,27.3,6.2,27.2z"/>
<path class="st10" d="M6.2,27.2c0.1,0.2,0.2,0.4,0.3,0.6c0.2,0.5,0.4,0.9,0.8,1.3c0.3,0.4,0.6,0.7,1,1c0.4,0.4,0.9,0.8,1.3,1.2
	c0.6,0.5,1.2,0.9,1.8,1.3s1.2,0.7,1.8,1c0.7,0.3,1.4,0.6,2.2,0.8c0.6,0.2,1.1,0.3,1.7,0.5c1,0.3,2,0.6,3,0.8c0.5,0.1,1,0.2,1.5,0.2
	c0.3,0,0.6,0.1,0.9,0.1s0.7,0,1,0.1c0.2,0,0.4,0,0.5-0.1c0.2-0.1,0.5-0.2,0.7-0.4c0,0,0.1-0.1,0.1-0.2l0,0c0,0.3-0.1,0.5-0.4,0.7
	c-0.2,0.1-0.4,0.2-0.6,0.3c0,0-0.1,0-0.2,0c-1.9,0-3.8-0.3-5.7-0.9c-1-0.3-2-0.6-3.1-0.9c-1.2-0.3-2.3-0.8-3.3-1.5
	c-1.3-0.8-2.6-1.8-3.7-2.9c-0.5-0.5-0.9-1-1.2-1.6c-0.2-0.3-0.3-0.7-0.5-1C6.1,27.5,6.1,27.3,6.2,27.2z"/>
<path class="st9" d="M25.5,34.7c0.1-0.3,0.3-0.3,0.5-0.1c0,0,0,0.1,0.1,0.1c0.1,0.1,0.1,0.1,0.1,0.2c0,0.1,0,0.2-0.1,0.3l0,0
	c-0.1,0.1-0.2,0.1-0.3,0c-0.1,0-0.1-0.1-0.1-0.1c0-0.1-0.1-0.2-0.1-0.3l0,0C25.5,34.9,25.5,34.8,25.5,34.7z"/>
<path class="st13" d="M24.1,30.2c-0.1,0.4,0,0.7,0.2,1c0.1,0.1,0.3,0.2,0.4,0.3c0,0,0,0,0.1,0c-0.1,0.1-0.2,0.1-0.3,0
	c-0.4-0.1-0.5-0.5-0.6-0.8c0-0.1,0-0.2,0-0.3C23.9,30.3,24,30.2,24.1,30.2z"/>
<path class="st12" d="M22.6,29L22.6,29c0-0.1,0-0.2,0.1-0.2s0.1,0.1,0.2,0.1c0,0.1,0.1,0.2,0.1,0.3c0,0.1,0,0.1-0.1,0.2
	c-0.2,0-0.3-0.1-0.2-0.2C22.7,29.1,22.7,29,22.6,29z"/>
<path class="st16" d="M25.4,35c0.1,0.1,0.1,0.2,0.1,0.3s0.2,0.1,0.3,0.1h0.1c-0.1,0.1-0.2,0.1-0.4,0.1c0,0-0.1,0-0.1-0.1
	s0-0.1-0.1-0.2C25.4,35,25.4,35,25.4,35z"/>
<path class="st33" d="M22.6,29c0,0.1,0.1,0.1,0.1,0.2c0,0.2,0,0.2,0.2,0.2l0,0c-0.1,0.1-0.1,0.1-0.2,0c-0.1,0-0.1-0.1-0.1-0.2
	C22.6,29.2,22.6,29.1,22.6,29z"/>
<path class="st34" d="M25.5,34.7c0,0.1,0,0.2-0.1,0.2C25.5,34.9,25.5,34.8,25.5,34.7z"/>
<path class="st9" d="M9.7,20.6c-0.5-0.1-0.9-0.3-1.3-0.5c-0.7-0.3-1.4-0.7-2-1.3c-0.7-0.6-1.2-1.3-1.5-2.2c-0.2-0.5-0.1-1,0-1.5
	c0.2-0.8,0.3-1.5,0.5-2.3c0.1-0.4,0.2-0.7,0.4-1l0,0c0,0.2-0.1,0.4-0.1,0.6C5.6,13,5.5,13.5,5.6,14s0.3,0.9,0.6,1.3
	c0.2,0.2,0.5,0.5,0.7,0.7c0.3,0.3,0.5,0.6,0.6,0.9c0.3,0.6,0.6,1.1,1,1.6c0.2,0.2,0.3,0.5,0.4,0.7C9.1,19.7,9.4,20.1,9.7,20.6z"/>
<path class="st21" d="M20.1,24.9c0.2,0,0.4,0,0.7,0.1c0,0,0.1,0,0.1,0.1c0.2,0.1,0.2,0.2,0,0.3c-0.3,0.2-1,0.1-1.3-0.2
	c-0.1-0.1-0.1-0.2,0.1-0.3C19.7,24.9,19.9,25,20.1,24.9z"/>
<path class="st21" d="M18.3,31.2c0,0.2,0,0.4-0.1,0.6c-0.1,0.2-0.3,0.3-0.5,0.2c-0.3-0.1-0.6-0.4-0.7-0.7c-0.3-0.5-0.3-1.1-0.1-1.6
	c0-0.1,0.1-0.2,0.2-0.3c0.2-0.2,0.3-0.2,0.5-0.1s0.3,0.3,0.5,0.5C18.2,30.3,18.3,30.7,18.3,31.2z"/>
<path class="st21" d="M15.7,32.6c-0.3,0-0.5-0.1-0.8-0.3c-0.1-0.1-0.1-0.1-0.1-0.2c0-0.1,0.1-0.1,0.2-0.1c0.4-0.1,0.8,0,1.2,0.1
	c0.1,0,0.2,0.1,0.2,0.2c0,0.1-0.1,0.1-0.2,0.2C16,32.6,15.9,32.6,15.7,32.6z"/>
<path class="st21" d="M13.5,29.9c-0.1,0-0.2,0-0.3-0.1c-0.3-0.2-0.5-0.3-0.6-0.7c0-0.1,0-0.1,0-0.2c0.1-0.1,0.1,0,0.2,0
	c0.4,0.1,0.6,0.4,0.8,0.7C13.8,29.8,13.7,29.9,13.5,29.9z"/>
<g>
	<path class="st35" d="M678.9,1165.5c8.8-1.9,17.7-0.3,25.8,3.5c4,1.9,7.7,4.3,11.5,6.5c3.7,2.2,7.5,4.2,11.1,6.6
		c3.5,2.3,6.5,4.9,8.8,8.4c0.5,0.7,1,1.5,1.4,2.3c-0.6-5-1.4-10.1-2.6-15.1c-1.3-5.9-2.7-12-5.4-17.5c-1.1-2.3-2.4-4.6-3.2-7
		c-1-2.6-1.8-5.1-2.5-7.7c-1.4-4.6-2.8-9.1-5.4-13.2c-1.5-2.4-3.3-4.6-4.8-6.9c-1-1-2.2-2-3.4-2.8c-0.7-0.5-1.5-0.9-2.3-1.2
		c-1.7-0.2-3.5-0.5-5.2-0.8c-1.6,0.2-3.3,0.5-4.9,1c-2.9,0.8-5.4,2.4-7.1,4.9c-0.6,0.9-1.2,1.8-1.6,2.8c-0.1,0.2-0.1,0.4-0.2,0.6
		c-0.5,2.1-1.3,4.1-2.1,6c0,0.1,0,0.2,0,0.3c0,0.6-0.3,1-0.7,1.2c-0.6,1.2-1.2,2.4-1.8,3.6c-0.2,0.5-0.4,1-0.6,1.4
		c-0.7,1.8-1.6,3.6-2.4,5.4c-0.9,1.8-1.6,3.6-2.4,5.4c-0.3,0.8-0.7,1.6-1.2,2.3c-2.1,4.1-4.6,7.9-7.4,11.5c-0.7,0.9-1.4,1.7-2.1,2.5
		C671.5,1167.7,675.1,1166.3,678.9,1165.5L678.9,1165.5z"/>
	<path class="st35" d="M623.7,1308c3.9,2.3,7.5,4.7,11.7,6.4c7.8,3.2,16.2,5.4,24.5,6.8c8.7,1.5,17.6,2.2,26.5,1.8
		c6.1-0.3,12-1.2,17.9-2.5c0.9-1.3,1.8-2.7,2.6-4.1c2.6-4.5,4.6-9.2,7-13.8c2.1-4.2,4.1-8.6,6.5-12.6c2.1-3.5,4.6-6.7,6.5-10.4
		c2.1-4.1,3.3-8.8,4.6-13.2c1.3-4.6,2.5-9.2,3.3-13.9c0.9-4.7,1.3-9.4,1.9-14.2c0.6-4.7,1.3-9.3,1.8-14c0.5-4.6,0.5-9.3,0.5-14
		c0-2.6-0.1-5.1-0.2-7.7c-0.2-0.5-0.4-1.1-0.6-1.6c-1.3-3.5-2.9-6.9-5.1-10c-2.4-3.3-5.8-5.6-9.2-7.7c-3.5-2.2-7.2-4.1-10.7-6.3
		c-3.7-2.3-7.4-4.5-11.3-6.2c-7.9-3.4-16.7-4.3-25-1.7c-6.2,1.9-11.7,5.4-17.1,9c-5.3,5.8-9.4,12.6-13.7,19.1
		c-4.8,7.3-10.5,13.8-16.2,20.4c-2.8,3.3-5.5,6.7-8.2,10c-2.6,3.1-4.7,6.4-6.1,10.2c-1.6,4.3-3.1,8.6-5.1,12.7c-1,1.9-2,4-2.5,6.1
		c-0.3,1.6-0.1,3.1-0.3,4.6c0.1,0.3,0.1,0.6,0,0.9c-0.9,2.3-0.7,4.7-0.6,7.1c0.1,2.4,0.2,4.8,0.7,7.1c1.1,5,3.7,9.6,6,14.1
		C616.4,1296.6,620,1302.3,623.7,1308L623.7,1308z"/>
	<path class="st35" d="M682.3,1326.1c-9,0.1-17.9-0.8-26.8-2.6c-8.4-1.7-16.9-4.1-24.6-7.8c-1.2-0.6-2.3-1.2-3.4-1.8
		c0.2,0.3,0.4,0.6,0.6,1c4.8,7.3,9.4,14.7,14.5,21.9c0.5,0.5,0.9,1,1.4,1.4c3.6,3.5,7.5,6.8,12,9.1c4.5,2.4,9.4,2.2,14.3,2.2
		c0.3,0,0.7,0,1.1,0c1.9-0.3,3.8-0.7,5.4-2c1-0.8,1.7-1.9,2.5-2.9c1.2-2.2,2.9-4.3,4.5-6.3c1.8-2.3,3.8-4.4,6.3-6.1
		c2.2-1.5,4.7-2.8,6.3-5c0.2-0.3,0.5-0.5,0.9-0.6c0-0.1,0.1-0.1,0.1-0.2c0.9-0.9,1.9-1.5,2.9-2.2
		C694.4,1325.5,688.4,1326.1,682.3,1326.1L682.3,1326.1z"/>
	<path class="st35" d="M443.8,1219.1c-1-2.2-1.8-4.4-2.9-6.5c-1.3-2.6-3-4.9-4.8-7.2c-1.8-2.2-3.5-4.5-5-7c-1.5-2.6-2.9-5.2-4.3-7.9
		c-1.2-2.2-2.4-4.3-4.1-6.3c-1.6-1.8-3.2-3.5-4.9-5.2c-3.2-3.3-6.5-6.7-8.4-11c-2.2-5.1-2.1-11-1.7-16.4c0.4-4.7,1.3-9.4,2.2-14
		c-0.5,1-1.1,2.1-1.6,3.1c-1.7,3.4-3.1,7-3.9,10.7s-1.3,7.4-2.2,11.1c-1.8,7.5-4.2,15.5-2.7,23.4c1.2,5.9,4.5,11.5,8,16.3
		c3.3,4.5,7.5,8.4,11.9,11.7c9.1,6.8,19.7,11.3,30.5,14.8C447.4,1225.6,445.3,1222.3,443.8,1219.1L443.8,1219.1z"/>
	<path class="st35" d="M668.2,1110.9c-0.9-7.9-2-16.1-5.7-23.2c-4.1-7.8-9.1-15.2-13.7-22.7c-3.5-5.6-7.4-10.9-12.3-15.3
		c-1.2-1-2.4-1.9-3.6-2.8c-17.2-7.9-36.7-10.4-55.5-9.1c-11.5,0.9-23,3.4-34.2,6.2c-5,1.2-9.6,3.1-14.3,5.1c-4,1.7-8.1,3.2-12.4,3.7
		c-0.2,0.3-0.6,0.5-1,0.5c-3.5,0-6.7,1.2-9.9,2.7c-3.3,1.6-6.3,3.4-9.7,4.8c-3.5,1.5-6.7,3.3-9.8,5.4c-3.1,2.2-6.2,4.5-9.5,6.4
		c-3.2,1.8-6.5,3.5-9.8,5.4c-12.2,7.2-23.3,16.1-33,26.4c-4.9,5.2-9.4,10.9-13.5,16.8c-1.9,2.7-3.8,5.5-5.6,8.2
		c-1,3.7-1.6,7.4-2.3,11.1c-1.1,5.5-1.9,11.1-1.8,16.7c0.1,2.5,0.2,5.2,0.9,7.6c0.6,2.2,1.7,4.1,3,5.9c2.6,3.6,6.1,6.6,9.1,9.9
		c1.5,1.7,2.9,3.4,4.1,5.3c1.4,2.3,2.6,4.8,3.9,7.2c1.3,2.4,2.6,4.7,4.1,6.9c1.6,2.4,3.6,4.5,5.3,6.8c1.5,2.1,2.7,4.3,3.7,6.7
		c0.9,2,1.7,4.1,2.7,6c2.1,3.7,5,7.8,8.6,10.9c9.2,2.7,18.6,4.7,28,6.6c7.5,1.5,15,2.8,22.6,3.3c8.1,0.6,16.3,0.4,24.3-0.5
		c16.3-1.8,31.7-6.8,46.2-14.3c7.1-3.6,13.9-7.8,20.4-12.3c3.3-2.2,6.5-4.6,10.2-6.1c2-0.8,4.4-1,6.5-1.8c0.9-0.5,1.7-0.9,2.5-1.4
		c0.1-0.1,0.3-0.2,0.4-0.3c0.3-0.3,0.5-0.4,0.9-0.5c0.6-0.4,1.1-0.8,1.7-1.2c8.1-5.9,14.6-13.7,21.1-21.2c3.5-4.1,7.3-7.9,10.6-12.1
		c3.3-4.3,5.9-9,8.2-13.9c1.2-2.4,2.2-4.9,3.4-7.4c1.1-2.5,2.4-4.9,3.5-7.4c1.4-3.3,2.5-6.8,3.5-10.3
		C669.6,1123.4,668.9,1117.2,668.2,1110.9L668.2,1110.9z"/>
	<path class="st35" d="M679.6,1085.4c-0.4-1.8-1.4-3.2-2.7-4.6c-3.5-3.7-6.9-7.6-10.3-11.5c-1.7-2-3.4-3.9-5.4-5.6
		c-1.9-1.6-4.1-2.9-6.3-4.2c-3.8-2.2-7.6-4.5-11.4-6.8c3.5,4,6.3,8.4,9.1,12.9c2.4,3.9,4.8,7.7,7.2,11.5c2.3,3.8,4.7,7.7,6.5,11.8
		c3.3,7.7,4.1,16.1,5.1,24.4c0.3,2.6,0.6,5.2,0.9,7.9c1-4.1,2-8.2,3.2-12.2c1.6-5.2,3.5-10.4,4.2-15.8
		C680,1090.7,680.2,1087.8,679.6,1085.4L679.6,1085.4z"/>
	<path class="st35" d="M485.1,1261.8c0-1,0-1.9,0-2.9c-2.5-0.3-5-0.6-7.5-1c-6-1.1-12-2.6-17.9-4.4c-5.8-1.8-11.8-3-17.6-4.6
		c-5.9-1.6-11.6-4-17.1-6.5c-2.8-1.3-5.6-2.6-8.3-4.1c-2.6-1.4-5-3.1-7.8-3.9c-2.6-0.8-5.3-0.9-8-0.7c-1.1,0.1-2.1,0.3-3,1
		c-0.7,0.5-1.2,1.2-1.7,2.2c-0.4,0.8-0.7,2.1-0.9,3.1c-0.9,6.3,1,13.2,2.8,19.2c1.6,5.5,3.6,11.1,5.9,16.1c2,4.5,4.5,8.6,6.8,12.8
		c0.3,0.6,0.6,1.2,0.9,1.7c1.2-3.6,4.1-6,7.5-8.1c4.8-2.9,9.7-5.4,15-7.3c5.4-1.9,11.1-3.1,16.8-3.9c11.1-1.5,22.5-1.5,33.6-1.1
		C484.9,1266.9,485.1,1264.3,485.1,1261.8L485.1,1261.8z"/>
	<path class="st35" d="M494.1,1252.4c0.7,0.5,1,1.4,1.1,2.2c0,0.1,0,0.1,0,0.1c0,0.1-0.1,0.1-0.1,0.1c-0.7,0.1-1.4,0.1-2.1-0.1
		c-0.8-0.2-1-0.6-1.6-1c-0.8-0.5-2-0.5-1.9-1.8c0.1-0.9,0.9-1.6,1.7-1.6c0.7,0,1.2,0.3,1.6,0.9
		C493.2,1251.7,493.4,1251.9,494.1,1252.4L494.1,1252.4z"/>
	<path class="st35" d="M494.6,1251.8c0.7,0.5,1,1.4,1.1,2.2c0,0.1,0,0.1,0,0.1l-0.1,0.1c-0.7,0.1-1.4,0.1-2.1-0.1s-1-0.6-1.6-1
		c-0.9-0.5-2-0.5-1.9-1.8c0.1-0.9,0.9-1.5,1.8-1.6c0.7,0,1.2,0.3,1.5,0.9C493.8,1251.2,494,1251.3,494.6,1251.8L494.6,1251.8z"/>
	<path class="st36" d="M509.3,1261.2c0.7,0.3,1.4,0.6,1.6,1.2c0.2,0.5,0,1.1,0.2,1.6c0.1,0.2,0.3,0.4,0.5,0.7
		c0.8,1.2-0.3,3.1,0.6,4.2c0.1,0.2,0.3,0.3,0.3,0.5c0.1,0.3-0.1,0.6-0.4,0.8c-0.3,0.1-0.6,0.1-0.9,0.1c-1-0.2-2-0.7-2.7-1.4
		c-0.3-0.3-0.6-0.7-0.9-1c-0.9-0.8-2.1-1-3.2-1.5c-0.8-0.3-1.7-0.8-2-1.6c-0.2-0.5-0.2-1.2,0-1.7s0.4-0.9,0.4-1.5
		c0-0.5-0.3-1-0.5-1.4c-0.2-0.5-0.1-1,0.5-1.3c1.2-0.7,3-0.2,3.9,0.7C507.4,1260.2,508.3,1260.8,509.3,1261.2L509.3,1261.2z"/>
	<path class="st35" d="M510,1260.6c0.7,0.3,1.4,0.6,1.6,1.3c0.2,0.5,0,1.1,0.2,1.5c0.1,0.3,0.3,0.4,0.5,0.7c0.8,1.2-0.3,3.1,0.6,4.2
		c0.1,0.2,0.3,0.3,0.3,0.5c0.1,0.3-0.1,0.6-0.4,0.7c-0.3,0.1-0.6,0.1-0.9,0.1c-1-0.2-2-0.7-2.7-1.4c-0.3-0.3-0.6-0.7-0.9-1
		c-0.9-0.8-2.1-1-3.2-1.5c-0.9-0.3-1.7-0.8-2-1.6c-0.2-0.5-0.2-1.2,0-1.7s0.4-0.9,0.4-1.5c0-0.5-0.3-0.9-0.5-1.4
		c-0.2-0.6-0.1-1,0.5-1.3c1.2-0.7,3-0.2,3.9,0.7C508.1,1259.5,509,1260.1,510,1260.6L510,1260.6z"/>
	<path class="st35" d="M589.5,1227.6c-1,0.5-2,1.1-2.5,2.2c-0.3,0.6-0.3,1.3-0.3,1.9c-0.1,1.6-0.1,3.2-0.2,4.8c0,0.5,0,1,0.2,1.4
		s0.5,0.7,0.8,0.9c2.8,2.4,4.3,4.2,8.2,5.5c4.8-2,7.3-6.2,10.3-10.6c0.3-0.5-5.4-9.1-6.4-9.9
		C597.3,1221.7,591.7,1226.3,589.5,1227.6L589.5,1227.6z"/>
	<path class="st35" d="M591.3,1226.4c-1,0.5-2,1.2-2.5,2.2c-0.3,0.6-0.3,1.2-0.3,1.9c-0.1,1.6-0.1,3.2-0.2,4.8c0,0.5,0,1,0.2,1.4
		s0.5,0.7,0.8,0.9c2.7,2.4,4.3,4.2,8.2,5.5c4.8-2,7.3-6.2,10.3-10.5c0.3-0.5-5.4-9.1-6.4-10C599.1,1220.6,593.5,1225.2,591.3,1226.4
		L591.3,1226.4z"/>
	<path class="st35" d="M594.4,1264.9c0.5,0.1,1.1,0.3,1.6,0.5c0.1,0,0.2,0.1,0.3,0.1c0.1,0.1,0.1,0.2,0.1,0.3c0.3,1,0.6,2.1,0.9,3.1
		c0.1,0.2,0.1,0.5,0,0.7c-0.6-0.2-1.2-0.4-1.8-0.5c-0.8-0.3-1.6-0.5-2.1-1.1c-0.4-0.4-0.7-1-0.9-1.5
		C592,1265,593.2,1264.6,594.4,1264.9L594.4,1264.9z"/>
	<path class="st35" d="M595,1264.7c0.5,0.1,1.1,0.3,1.6,0.5c0.1,0,0.2,0.1,0.2,0.1c0.1,0.1,0.1,0.2,0.1,0.3c0.3,1,0.6,2.1,0.9,3.1
		c0.1,0.3,0.1,0.5,0,0.7c-0.6-0.2-1.2-0.4-1.8-0.6c-0.7-0.2-1.6-0.5-2.1-1.1c-0.4-0.4-0.7-1-0.9-1.5
		C592.6,1264.8,593.9,1264.5,595,1264.7L595,1264.7z"/>
	<path class="st36" d="M613.9,1358.1c0.8,2.2,1,4.7,1.6,7c0.7,2.3,2.1,4.6,4.4,5.3c1.1,0.3,2.3,0.2,3.5,0.3c2.4,0.3,4.8,1.6,7.2,1
		c1.7-0.4,3.1-1.6,4.4-2.9c1.6-1.6,3.3-3.1,4.9-4.6c0.6-0.6,1.2-1.2,1.5-2s0.1-1.7-0.1-2.6c-0.9-4.1-2.1-8.8-5.9-10.8
		c-1.8-0.9-4-1.1-6.1-1.2c-4.4-0.2-11-1.8-15.1-0.2C609.5,1349.3,612.7,1354.9,613.9,1358.1L613.9,1358.1z"/>
	<path class="st35" d="M615.4,1356.8c0.9,2.3,1,4.7,1.6,7c0.7,2.3,2.1,4.6,4.4,5.3c1.1,0.3,2.3,0.2,3.5,0.3c2.4,0.3,4.8,1.5,7.2,1
		c1.7-0.4,3.1-1.6,4.4-2.9c1.6-1.5,3.3-3.1,4.9-4.6c0.6-0.6,1.2-1.2,1.5-2c0.3-0.9,0.1-1.8-0.1-2.6c-0.9-4.1-2.1-8.8-5.9-10.8
		c-1.8-1-4-1.1-6.1-1.2c-4.4-0.2-11-1.8-15.1-0.2C611,1348.1,614.2,1353.6,615.4,1356.8L615.4,1356.8z"/>
	<path class="st35" d="M576.7,1250.5c0.1-0.1,0.2-0.1,0.3-0.2s0.1-0.1,0.1-0.2c0.3-0.4,0.6-0.8,0.7-1.4v-0.3c0-0.2,0-0.4,0-0.6
		c0-0.4,0-0.8,0.1-1.2c0-0.7,0-1.3-0.4-1.9c-0.3-0.5-0.9-1-1.4-1.4c-0.9-0.7-2.1-0.7-3.2-0.8c-1.9,0.5-3.7,1-5.6,1.5
		c-0.8,0.3-1.6,0.7-2.4,1c-0.5,0.3-1,0.5-1.4,0.8c0,0-0.2,0.1-0.2,0.2c-0.1,0.1-0.1,0.1-0.2,0.2c-0.1,0.1-0.2,0.2-0.3,0.3
		c0,0.1-0.1,0.1-0.1,0.1c0,0.1-0.1,0.3-0.1,0.3c0,0.1-0.1,0.2-0.1,0.2c0.1-0.3,0,0,0,0.1v0.1c0,0,0,0,0,0.1s0,0.1,0,0.1l0.1,0.1
		c0.1,0.1,0.2,0.3,0.3,0.4l0.2,0.2c0.1,0.1,0.2,0.2,0.3,0.3c0.1,0.2,0.3,0.3,0.5,0.5c1.5,1,3.1,1.9,4.7,2.7c1.8,0.3,3.5,0.8,5.3,0.4
		C574.9,1251.6,575.8,1251.1,576.7,1250.5L576.7,1250.5z"/>
	<path class="st35" d="M578,1249.6c0.1-0.1,0.2-0.1,0.3-0.2c0-0.1,0.1-0.1,0.1-0.1c0.3-0.4,0.5-0.8,0.7-1.4v-0.3c0-0.2,0-0.4,0-0.6
		c0-0.4,0-0.8,0.1-1.2c0-0.7,0-1.3-0.4-2c-0.3-0.5-0.9-1-1.4-1.4c-1-0.7-2.1-0.8-3.2-0.8c-1.9,0.5-3.7,1-5.6,1.5
		c-0.8,0.3-1.6,0.7-2.4,1c-0.5,0.2-1,0.5-1.4,0.8l-0.2,0.1c-0.1,0.1-0.1,0.1-0.2,0.2c-0.1,0.1-0.2,0.2-0.3,0.3
		c0,0.1-0.1,0.1-0.1,0.1c-0.1,0.1-0.1,0.3-0.1,0.3c0,0.1,0,0.2-0.1,0.2c0.1-0.3,0,0,0,0.1c0,0,0,0,0,0.1c0,0,0,0,0.1,0.1
		c0,0.1,0,0.1,0,0.1s0,0.1,0.1,0.1c0.1,0.1,0.1,0.3,0.3,0.4c0,0,0.1,0.2,0.2,0.2c0.1,0.1,0.2,0.2,0.3,0.3c0.1,0.1,0.3,0.3,0.5,0.5
		c1.5,1,3.1,1.9,4.7,2.6c1.8,0.3,3.5,0.9,5.3,0.4C576.2,1250.8,577,1250.2,578,1249.6L578,1249.6z"/>
	<path class="st36" d="M582.7,1315.9c-0.1-0.8,0.3-1.6,0.8-2.3c0-0.1,0.1-0.1,0.1-0.1c0.1,0,0.1,0,0.1,0.1c0.6,0.4,1,1,1.4,1.6
		c0.4,0.7,0.3,1.2,0.5,1.9c0.2,1,1,1.8,0,2.6c-0.7,0.6-1.7,0.5-2.4-0.1c-0.5-0.5-0.6-1-0.5-1.7
		C582.9,1317,582.8,1316.7,582.7,1315.9L582.7,1315.9z"/>
	<path class="st35" d="M583.1,1315.5c-0.3-0.8,0.1-1.7,0.5-2.4c0-0.1,0-0.1,0.1-0.1s0.1,0,0.1,0.1c0.6,0.3,1.1,0.9,1.5,1.4
		c0.5,0.6,0.4,1.1,0.7,1.8c0.3,0.9,1.2,1.7,0.3,2.6c-0.7,0.7-1.7,0.7-2.4,0.1c-0.6-0.5-0.7-0.9-0.7-1.6
		C583.3,1316.5,583.3,1316.2,583.1,1315.5L583.1,1315.5z"/>
	<path class="st36" d="M602,1341.5c0.1,0,0.2,0.1,0.4,0.1c0.1,0,0.1,0,0.2,0c0.5,0,1,0,1.5-0.3l0.3-0.2c0.2-0.1,0.3-0.2,0.5-0.3
		c0.3-0.2,0.7-0.4,1-0.7c0.6-0.4,1.1-0.8,1.3-1.4s0.3-1.3,0.3-1.9c0-1.2-0.6-2.1-1.3-3.1c-1.5-1.2-3-2.4-4.5-3.7
		c-0.7-0.5-1.5-0.9-2.2-1.3c-0.5-0.3-1-0.5-1.5-0.7l-0.2-0.1c-0.1,0-0.2,0-0.3-0.1c-0.1,0-0.3,0-0.4-0.1c-0.1,0-0.1,0-0.1,0
		c-0.1,0-0.3,0.1-0.3,0.1c-0.1,0-0.1,0.1-0.2,0.1c0.3-0.1,0,0-0.1,0.1c0,0,0,0-0.1,0c0,0,0,0-0.1,0.1c0,0.1-0.1,0.1-0.1,0.1
		s0,0.1-0.1,0.1c-0.1,0.1-0.1,0.3-0.2,0.4c0,0.1-0.1,0.3-0.1,0.3c0,0.1-0.1,0.3-0.1,0.5s-0.1,0.4-0.1,0.6c0.1,1.8,0.3,3.6,0.6,5.4
		c0.8,1.6,1.4,3.4,2.8,4.5C600,1340.7,600.9,1341,602,1341.5L602,1341.5z"/>
	<path class="st35" d="M603.1,1340.6c0.1,0.1,0.2,0.1,0.3,0.1s0.1,0,0.2,0c0.5,0,1,0,1.5-0.2c0,0,0.3-0.1,0.3-0.2
		c0.2-0.1,0.3-0.2,0.5-0.3c0.3-0.2,0.7-0.4,1-0.6c0.6-0.4,1.1-0.7,1.4-1.4c0.2-0.6,0.4-1.3,0.4-1.9c0-1.2-0.6-2.2-1.2-3.1
		c-1.5-1.2-2.9-2.5-4.4-3.8c-0.7-0.5-1.5-1-2.2-1.4c-0.5-0.3-1-0.6-1.5-0.8l-0.2-0.1c-0.1,0-0.2-0.1-0.3-0.1s-0.3,0-0.4-0.1
		c-0.1,0-0.1,0-0.1,0c-0.1,0-0.3,0.1-0.3,0.1c-0.1,0-0.1,0-0.2,0.1c0.3-0.1,0,0-0.1,0.1l0,0c0,0,0,0-0.1,0.1l-0.1,0.1
		c0,0,0,0.1-0.1,0.1c-0.1,0.1-0.1,0.3-0.2,0.4c0,0.1-0.1,0.3-0.1,0.3c-0.1,0.1-0.1,0.3-0.1,0.5c-0.1,0.2-0.1,0.4-0.1,0.6
		c0,1.8,0.2,3.6,0.5,5.4c0.8,1.6,1.3,3.4,2.7,4.6C601.1,1339.8,602,1340.2,603.1,1340.6L603.1,1340.6z"/>
	<path class="st36" d="M618.1,1376.5c-0.1,0.4-0.3,0.8-0.3,1.2c0,0.2,0.1,0.4,0.1,0.6c0,0.4-0.1,0.9-0.3,1.2c-0.4,0.7-1.1,1-1.8,1.4
		c-0.3,0.1-0.5,0.3-0.8,0.3s-0.6-0.1-0.9-0.3c-0.7-0.3-1.3-0.2-1.6-1c-0.1-0.3-0.2-0.6-0.2-0.9c-0.1-0.6-0.7-0.9-0.9-1.4
		c-0.1-0.1-0.1-0.3-0.1-0.4c0-0.2,0.1-0.4,0.2-0.6c0.8-1.6,0.7-4.6,3.3-4c1,0.2,1.5,0.9,2,1.6
		C617.3,1375.1,618.4,1375.2,618.1,1376.5L618.1,1376.5z"/>
	<path class="st35" d="M618.6,1375.8c-0.1,0.4-0.3,0.8-0.3,1.2c0,0.2,0.1,0.4,0.1,0.6c0,0.4-0.1,0.9-0.3,1.2c-0.4,0.7-1.1,1-1.8,1.4
		c-0.3,0.1-0.5,0.3-0.9,0.3c-0.3,0-0.6-0.1-0.9-0.3c-0.7-0.3-1.3-0.2-1.6-1c-0.1-0.3-0.2-0.6-0.2-0.9c-0.1-0.6-0.7-0.9-0.9-1.4
		c-0.1-0.1-0.1-0.3-0.1-0.4c0-0.2,0.1-0.4,0.2-0.6c0.8-1.6,0.7-4.6,3.3-4c1,0.3,1.4,0.9,2,1.6
		C617.8,1374.4,618.9,1374.5,618.6,1375.8L618.6,1375.8z"/>
	<path class="st36" d="M593.6,1391.4c0.5-0.2,1.1-0.5,1.6-0.7c2.2-1,4.6-1.8,6.6-3.4c2-1.5,2.6-3.5,2.8-5.9
		c0.5-4.8-0.5-9.9-2.7-14.2c-1.3-2.5-3.2-4.6-4.8-6.9c-1.8-2.3-3.3-4.7-4.5-7.3c-1.1-2.6-1.9-5.2-3.1-7.7c-1.2-2.4-2.9-4.4-4.7-6.3
		c-3.6-3.8-7.8-6.9-11.6-10.5c-3.7-3.5-6.5-7.6-9.3-11.8c-2.8-4.3-5.8-8.1-10.5-10.3c-4.6-2.2-9.7-3.1-14.3-5.3
		c-5.1-2.4-9.3-6.3-13.8-9.4c-4.6-3.2-9.7-5.6-14.9-7.6c-5.3-2-10.8-3.5-16.4-4.5c-5.5-0.9-11-1-16.6-1.1
		c-11.1-0.2-22.2-0.1-33.1,2.1c-5.4,1.1-10.7,2.6-15.6,4.9c-2.5,1.1-4.8,2.4-7.2,3.8c-1.8,1-3.7,2.1-5.3,3.5
		c-1.6,1.5-2.8,3.3-3.1,5.6c-0.1,0.7-0.1,1.3-0.2,2c1.5,3.2,2.9,6.5,4.5,9.7c1.2,2.6,2.6,5.2,4.3,7.6c1.7,2.4,3.6,4.6,5.6,6.7
		c3.9,4.3,8,8.4,12.4,12.2c8.8,7.6,18.2,14.7,28,21c9.5,6.1,19.6,11.1,30.4,14.5c5.9,1.9,11.9,3.3,17.8,5.1
		c5.9,1.7,11.8,3.5,17.8,5.2c11.9,3.4,24,6.1,36.3,7.5C577.8,1390.7,585.7,1391.3,593.6,1391.4L593.6,1391.4z"/>
	<path class="st35" d="M594.1,1387.6c0.5-0.2,1.1-0.5,1.6-0.7c2.2-1,4.7-1.8,6.6-3.4c1.9-1.5,2.6-3.5,2.8-6
		c0.4-4.8-0.5-9.9-2.7-14.2c-1.3-2.5-3.2-4.6-4.8-6.9c-1.7-2.3-3.3-4.7-4.4-7.4c-1.1-2.6-1.9-5.2-3.1-7.7c-1.2-2.4-2.9-4.5-4.7-6.3
		c-3.6-3.8-7.8-6.9-11.6-10.5c-3.7-3.5-6.5-7.6-9.4-11.9c-2.7-4.2-5.8-8.1-10.4-10.3c-4.6-2.2-9.7-3.1-14.3-5.2
		c-5.1-2.4-9.3-6.3-13.8-9.4c-4.6-3.2-9.7-5.6-14.9-7.6c-5.3-2-10.8-3.5-16.4-4.5c-5.5-1-11-1.1-16.6-1.2c-11-0.2-22.2,0-33.1,2.2
		c-5.4,1.1-10.7,2.6-15.7,4.9c-2.5,1.1-4.8,2.5-7.1,3.8c-1.8,1-3.7,2.1-5.3,3.5c-1.6,1.5-2.8,3.3-3.1,5.6c-0.1,0.7-0.1,1.3-0.2,2
		c1.5,3.2,2.9,6.5,4.5,9.7c1.3,2.6,2.6,5.2,4.3,7.6c1.7,2.4,3.6,4.6,5.6,6.7c3.9,4.3,8.1,8.3,12.4,12.1c8.8,7.7,18.2,14.7,28,21
		c9.5,6.1,19.6,11.1,30.4,14.5c5.9,1.9,11.9,3.3,17.8,5.1c5.9,1.8,11.8,3.6,17.7,5.2c11.9,3.4,24,6.1,36.3,7.5
		C578.3,1387,586.2,1387.5,594.1,1387.6L594.1,1387.6z"/>
	<path class="st36" d="M595.7,1280.2c-1.3-2.2-2.7-4.6-4.4-6.5c-1.6-1.8-3.5-3.1-5.4-4.5c-1.5-1-3-2-4.6-3c-1.9-0.1-3.7-0.4-5.4-1.1
		c-1.8-0.8-3.5-1.7-5.2-2.6c-2.7-1.4-5.5-2.5-8.1-4c-1.8-0.5-3.5-1-5.3-1.6c-4.1-1.1-8.1-2-12.3-2.4c-2.5,0.5-5.1,1-7.6,1.4
		c-0.3,0.1-0.7,0.1-1,0.1c-2.8,0.7-5.6,1.3-8.4,2.1c-2.7,0.8-5.5,1.8-7.4,3.9c-2.4,2.6-2.5,5.8-1.7,9.1c0.3,0.7,0.7,1.3,1.1,1.8
		c0.9,1,1.8,1.9,2.6,2.8c0.3,0.3,0.7,0.7,1,1c2.2,1.1,4.5,2.4,6.6,3.7c2.5,1.7,4.9,3.6,7.3,5.4c2.2,1.7,4.5,3.3,7.1,4.5
		c2.4,1.2,5,1.9,7.6,2.7c1.3,0.4,2.6,0.9,3.9,1.4c2.2,0.2,4.2,1.1,6.2,2c2.2,1,4.3,1.9,6.6,2.7c4.5,1.5,9.2,2.6,13.9,2.9
		c4.4,0.3,8.6-0.4,12.9-1.3c0.4-0.1,0.8-0.2,1.2-0.3c1-1.6,1.1-4,1.3-5.9c0.2-2.4,0.5-4.9,0.8-7.3
		C598,1284.8,597,1282.4,595.7,1280.2L595.7,1280.2z"/>
	<path class="st35" d="M595.7,1277.6c-1.3-2.2-2.7-4.6-4.4-6.5c-1.6-1.8-3.5-3.1-5.4-4.5c-1.5-1-3-2-4.6-3c-1.9-0.1-3.7-0.4-5.4-1.1
		c-1.8-0.8-3.5-1.7-5.2-2.6c-2.7-1.4-5.5-2.5-8.1-4c-1.8-0.5-3.5-1-5.3-1.6c-4.1-1.1-8.1-2-12.3-2.4c-2.5,0.5-5.1,1-7.6,1.4
		c-0.3,0.1-0.7,0.1-1,0.1c-2.8,0.6-5.6,1.3-8.4,2.1c-2.7,0.8-5.5,1.8-7.4,3.9c-2.4,2.6-2.5,5.8-1.7,9.1c0.3,0.7,0.7,1.3,1.1,1.8
		c0.9,1,1.8,1.9,2.6,2.8c0.3,0.3,0.7,0.7,1,1c2.2,1.1,4.5,2.4,6.6,3.7c2.5,1.7,4.9,3.6,7.3,5.4c2.2,1.7,4.5,3.3,7.1,4.5
		c2.4,1.2,5,1.9,7.6,2.7c1.3,0.4,2.6,0.9,3.9,1.4c2.2,0.2,4.2,1.1,6.2,2c2.2,1,4.3,1.9,6.6,2.7c4.5,1.5,9.2,2.6,13.9,2.9
		c4.4,0.3,8.6-0.4,12.9-1.3c0.4-0.1,0.8-0.2,1.2-0.3c1-1.6,1.1-4,1.3-5.9c0.2-2.5,0.5-4.9,0.8-7.4
		C598,1282.2,597,1279.8,595.7,1277.6L595.7,1277.6z"/>
	<path class="st37" d="M701,1119.6c9-53.1,53.7,68.5,48,100.4c-0.1,46.4-32.7,154.5-80.7,135.3
		C737.4,1303.6,754.1,1189.4,701,1119.6L701,1119.6z"/>
	<path class="st37" d="M499.4,1249.7c91.8,0,166.9-71,173.6-161C541,935,220.7,1228.5,499.4,1249.7L499.4,1249.7z M384.9,1227.4
		c-3.1,194.8,305.3,192,235.4,125.8c-26.1-30.2-41.1-66.2-45.2-103C515.1,1277.6,435.5,1267.6,384.9,1227.4L384.9,1227.4z
		 M689.4,1081.7c3.4,140.1-187.5,153-32.4,284.2c13.7,7.2,9.3,11.4-2.2,18.4C238.5,1543.8,319.1,832.2,689.4,1081.7L689.4,1081.7z"
		/>
	<path class="st38" d="M496.3,1120.3c-5.4-27.1-36.8,10-20.4,34.8c5.8,8.8,14.1,0.5,18.1-11C496.3,1137.3,497.9,1128.3,496.3,1120.3
		L496.3,1120.3z"/>
	<path class="st38" d="M605.8,1104.1c1.1-7.9-28.5-23.8-21.2-8.7c2.6,5.4,10.1,9.8,15.1,10.7
		C602.6,1106.7,605.4,1106.4,605.8,1104.1L605.8,1104.1z"/>
	<path class="st38" d="M541.4,1205c4.7-5.2-9-31.6-11.2-16.9c-0.8,5.2,2.5,12.2,5.7,15.4C537.8,1205.4,540,1206.6,541.4,1205
		L541.4,1205z"/>
	<path class="st38" d="M532.5,1321.2c-10.3-13.2-17.2,15.5-1.5,24.4c5.6,3.1,7.8-3.6,6.7-10.9
		C537.2,1330.3,535.6,1325.1,532.5,1321.2L532.5,1321.2z"/>
	<path class="st38" d="M518.2,1348.7c-1.6-4.6-21.9-5-13.8,1.1c2.9,2.2,8.2,2.5,11.1,1.6C517.3,1350.9,518.7,1350,518.2,1348.7
		L518.2,1348.7z"/>
	<path class="st38" d="M491,1323.8c1.1-4.1-13.5-14.6-10.7-6.1c1,3,4.7,5.9,7.3,6.7C489.2,1325,490.7,1325,491,1323.8L491,1323.8z"
		/>
	<path class="st38" d="M682.3,1219.3c4.6-0.7,8.2-3.6,7.1-9.7c-1-5.7-8.5-7.8-14.1-6.5c-0.1,0-0.1,0.1-0.2,0.1
		c-3.3,0.8-6.7,2.5-8,5.6C664.3,1215.5,674.7,1220.4,682.3,1219.3L682.3,1219.3z"/>
	<path class="st38" d="M565.6,1277c-1.6-4.6-22-5-13.9,1.1c2.9,2.2,8.2,2.5,11.1,1.6C564.7,1279.3,566.1,1278.3,565.6,1277
		L565.6,1277z"/>
	<path class="st38" d="M702.2,1291.2c-8.7-8-25,17.8-8.7,20.8c5.8,1,10.3-5.2,11.2-11C705.2,1297.5,704.7,1293.6,702.2,1291.2
		L702.2,1291.2z"/>
</g>
<g>
	<path class="st35" d="M678.9,1165.5c8.8-1.9,17.7-0.3,25.8,3.5c4,1.9,7.7,4.3,11.5,6.5c3.7,2.2,7.5,4.2,11.1,6.6
		c3.5,2.3,6.5,4.9,8.8,8.4c0.5,0.7,1,1.5,1.4,2.3c-0.6-5-1.4-10.1-2.6-15.1c-1.3-5.9-2.7-12-5.4-17.5c-1.1-2.3-2.4-4.6-3.2-7
		c-1-2.6-1.8-5.1-2.5-7.7c-1.4-4.6-2.8-9.1-5.4-13.2c-1.5-2.4-3.3-4.6-4.8-6.9c-1-1-2.2-2-3.4-2.8c-0.7-0.5-1.5-0.9-2.3-1.2
		c-1.7-0.2-3.5-0.5-5.2-0.8c-1.6,0.2-3.3,0.5-4.9,1c-2.9,0.8-5.4,2.4-7.1,4.9c-0.6,0.9-1.2,1.8-1.6,2.8c-0.1,0.2-0.1,0.4-0.2,0.6
		c-0.5,2.1-1.3,4.1-2.1,6c0,0.1,0,0.2,0,0.3c0,0.6-0.3,1-0.7,1.2c-0.6,1.2-1.2,2.4-1.8,3.6c-0.2,0.5-0.4,1-0.6,1.4
		c-0.7,1.8-1.6,3.6-2.4,5.4c-0.9,1.8-1.6,3.6-2.4,5.4c-0.3,0.8-0.7,1.6-1.2,2.3c-2.1,4.1-4.6,7.9-7.4,11.5c-0.7,0.9-1.4,1.7-2.1,2.5
		C671.5,1167.7,675.1,1166.3,678.9,1165.5L678.9,1165.5z"/>
	<path class="st35" d="M623.7,1308c3.9,2.3,7.5,4.7,11.7,6.4c7.8,3.2,16.2,5.4,24.5,6.8c8.7,1.5,17.6,2.2,26.5,1.8
		c6.1-0.3,12-1.2,17.9-2.5c0.9-1.3,1.8-2.7,2.6-4.1c2.6-4.5,4.6-9.2,7-13.8c2.1-4.2,4.1-8.6,6.5-12.6c2.1-3.5,4.6-6.7,6.5-10.4
		c2.1-4.1,3.3-8.8,4.6-13.2c1.3-4.6,2.5-9.2,3.3-13.9c0.9-4.7,1.3-9.4,1.9-14.2c0.6-4.7,1.3-9.3,1.8-14c0.5-4.6,0.5-9.3,0.5-14
		c0-2.6-0.1-5.1-0.2-7.7c-0.2-0.5-0.4-1.1-0.6-1.6c-1.3-3.5-2.9-6.9-5.1-10c-2.4-3.3-5.8-5.6-9.2-7.7c-3.5-2.2-7.2-4.1-10.7-6.3
		c-3.7-2.3-7.4-4.5-11.3-6.2c-7.9-3.4-16.7-4.3-25-1.7c-6.2,1.9-11.7,5.4-17.1,9c-5.3,5.8-9.4,12.6-13.7,19.1
		c-4.8,7.3-10.5,13.8-16.2,20.4c-2.8,3.3-5.5,6.7-8.2,10c-2.6,3.1-4.7,6.4-6.1,10.2c-1.6,4.3-3.1,8.6-5.1,12.7c-1,1.9-2,4-2.5,6.1
		c-0.3,1.6-0.1,3.1-0.3,4.6c0.1,0.3,0.1,0.6,0,0.9c-0.9,2.3-0.7,4.7-0.6,7.1c0.1,2.4,0.2,4.8,0.7,7.1c1.1,5,3.7,9.6,6,14.1
		C616.4,1296.6,620,1302.3,623.7,1308L623.7,1308z"/>
	<path class="st35" d="M682.3,1326.1c-9,0.1-17.9-0.8-26.8-2.6c-8.4-1.7-16.9-4.1-24.6-7.8c-1.2-0.6-2.3-1.2-3.4-1.8
		c0.2,0.3,0.4,0.6,0.6,1c4.8,7.3,9.4,14.7,14.5,21.9c0.5,0.5,0.9,1,1.4,1.4c3.6,3.5,7.5,6.8,12,9.1c4.5,2.4,9.4,2.2,14.3,2.2
		c0.3,0,0.7,0,1.1,0c1.9-0.3,3.8-0.7,5.4-2c1-0.8,1.7-1.9,2.5-2.9c1.2-2.2,2.9-4.3,4.5-6.3c1.8-2.3,3.8-4.4,6.3-6.1
		c2.2-1.5,4.7-2.8,6.3-5c0.2-0.3,0.5-0.5,0.9-0.6c0-0.1,0.1-0.1,0.1-0.2c0.9-0.9,1.9-1.5,2.9-2.2
		C694.4,1325.5,688.4,1326.1,682.3,1326.1L682.3,1326.1z"/>
	<path class="st35" d="M443.8,1219.1c-1-2.2-1.8-4.4-2.9-6.5c-1.3-2.6-3-4.9-4.8-7.2c-1.8-2.2-3.5-4.5-5-7c-1.5-2.6-2.9-5.2-4.3-7.9
		c-1.2-2.2-2.4-4.3-4.1-6.3c-1.6-1.8-3.2-3.5-4.9-5.2c-3.2-3.3-6.5-6.7-8.4-11c-2.2-5.1-2.1-11-1.7-16.4c0.4-4.7,1.3-9.4,2.2-14
		c-0.5,1-1.1,2.1-1.6,3.1c-1.7,3.4-3.1,7-3.9,10.7s-1.3,7.4-2.2,11.1c-1.8,7.5-4.2,15.5-2.7,23.4c1.2,5.9,4.5,11.5,8,16.3
		c3.3,4.5,7.5,8.4,11.9,11.7c9.1,6.8,19.7,11.3,30.5,14.8C447.4,1225.6,445.3,1222.3,443.8,1219.1L443.8,1219.1z"/>
	<path class="st35" d="M668.2,1110.9c-0.9-7.9-2-16.1-5.7-23.2c-4.1-7.8-9.1-15.2-13.7-22.7c-3.5-5.6-7.4-10.9-12.3-15.3
		c-1.2-1-2.4-1.9-3.6-2.8c-17.2-7.9-36.7-10.4-55.5-9.1c-11.5,0.9-23,3.4-34.2,6.2c-5,1.2-9.6,3.1-14.3,5.1c-4,1.7-8.1,3.2-12.4,3.7
		c-0.2,0.3-0.6,0.5-1,0.5c-3.5,0-6.7,1.2-9.9,2.7c-3.3,1.6-6.3,3.4-9.7,4.8c-3.5,1.5-6.7,3.3-9.8,5.4c-3.1,2.2-6.2,4.5-9.5,6.4
		c-3.2,1.8-6.5,3.5-9.8,5.4c-12.2,7.2-23.3,16.1-33,26.4c-4.9,5.2-9.4,10.9-13.5,16.8c-1.9,2.7-3.8,5.5-5.6,8.2
		c-1,3.7-1.6,7.4-2.3,11.1c-1.1,5.5-1.9,11.1-1.8,16.7c0.1,2.5,0.2,5.2,0.9,7.6c0.6,2.2,1.7,4.1,3,5.9c2.6,3.6,6.1,6.6,9.1,9.9
		c1.5,1.7,2.9,3.4,4.1,5.3c1.4,2.3,2.6,4.8,3.9,7.2c1.3,2.4,2.6,4.7,4.1,6.9c1.6,2.4,3.6,4.5,5.3,6.8c1.5,2.1,2.7,4.3,3.7,6.7
		c0.9,2,1.7,4.1,2.7,6c2.1,3.7,5,7.8,8.6,10.9c9.2,2.7,18.6,4.7,28,6.6c7.5,1.5,15,2.8,22.6,3.3c8.1,0.6,16.3,0.4,24.3-0.5
		c16.3-1.8,31.7-6.8,46.2-14.3c7.1-3.6,13.9-7.8,20.4-12.3c3.3-2.2,6.5-4.6,10.2-6.1c2-0.8,4.4-1,6.5-1.8c0.9-0.5,1.7-0.9,2.5-1.4
		c0.1-0.1,0.3-0.2,0.4-0.3c0.3-0.3,0.5-0.4,0.9-0.5c0.6-0.4,1.1-0.8,1.7-1.2c8.1-5.9,14.6-13.7,21.1-21.2c3.5-4.1,7.3-7.9,10.6-12.1
		c3.3-4.3,5.9-9,8.2-13.9c1.2-2.4,2.2-4.9,3.4-7.4c1.1-2.5,2.4-4.9,3.5-7.4c1.4-3.3,2.5-6.8,3.5-10.3
		C669.6,1123.4,668.9,1117.2,668.2,1110.9L668.2,1110.9z"/>
	<path class="st35" d="M679.6,1085.4c-0.4-1.8-1.4-3.2-2.7-4.6c-3.5-3.7-6.9-7.6-10.3-11.5c-1.7-2-3.4-3.9-5.4-5.6
		c-1.9-1.6-4.1-2.9-6.3-4.2c-3.8-2.2-7.6-4.5-11.4-6.8c3.5,4,6.3,8.4,9.1,12.9c2.4,3.9,4.8,7.7,7.2,11.5c2.3,3.8,4.7,7.7,6.5,11.8
		c3.3,7.7,4.1,16.1,5.1,24.4c0.3,2.6,0.6,5.2,0.9,7.9c1-4.1,2-8.2,3.2-12.2c1.6-5.2,3.5-10.4,4.2-15.8
		C680,1090.7,680.2,1087.8,679.6,1085.4L679.6,1085.4z"/>
	<path class="st35" d="M485.1,1261.8c0-1,0-1.9,0-2.9c-2.5-0.3-5-0.6-7.5-1c-6-1.1-12-2.6-17.9-4.4c-5.8-1.8-11.8-3-17.6-4.6
		c-5.9-1.6-11.6-4-17.1-6.5c-2.8-1.3-5.6-2.6-8.3-4.1c-2.6-1.4-5-3.1-7.8-3.9c-2.6-0.8-5.3-0.9-8-0.7c-1.1,0.1-2.1,0.3-3,1
		c-0.7,0.5-1.2,1.2-1.7,2.2c-0.4,0.8-0.7,2.1-0.9,3.1c-0.9,6.3,1,13.2,2.8,19.2c1.6,5.5,3.6,11.1,5.9,16.1c2,4.5,4.5,8.6,6.8,12.8
		c0.3,0.6,0.6,1.2,0.9,1.7c1.2-3.6,4.1-6,7.5-8.1c4.8-2.9,9.7-5.4,15-7.3c5.4-1.9,11.1-3.1,16.8-3.9c11.1-1.5,22.5-1.5,33.6-1.1
		C484.9,1266.9,485.1,1264.3,485.1,1261.8L485.1,1261.8z"/>
	<path class="st35" d="M494.1,1252.4c0.7,0.5,1,1.4,1.1,2.2c0,0.1,0,0.1,0,0.1c0,0.1-0.1,0.1-0.1,0.1c-0.7,0.1-1.4,0.1-2.1-0.1
		c-0.8-0.2-1-0.6-1.6-1c-0.8-0.5-2-0.5-1.9-1.8c0.1-0.9,0.9-1.6,1.7-1.6c0.7,0,1.2,0.3,1.6,0.9
		C493.2,1251.7,493.4,1251.9,494.1,1252.4L494.1,1252.4z"/>
	<path class="st35" d="M494.6,1251.8c0.7,0.5,1,1.4,1.1,2.2c0,0.1,0,0.1,0,0.1l-0.1,0.1c-0.7,0.1-1.4,0.1-2.1-0.1s-1-0.6-1.6-1
		c-0.9-0.5-2-0.5-1.9-1.8c0.1-0.9,0.9-1.5,1.8-1.6c0.7,0,1.2,0.3,1.5,0.9C493.8,1251.2,494,1251.3,494.6,1251.8L494.6,1251.8z"/>
	<path class="st36" d="M509.3,1261.2c0.7,0.3,1.4,0.6,1.6,1.2c0.2,0.5,0,1.1,0.2,1.6c0.1,0.2,0.3,0.4,0.5,0.7
		c0.8,1.2-0.3,3.1,0.6,4.2c0.1,0.2,0.3,0.3,0.3,0.5c0.1,0.3-0.1,0.6-0.4,0.8c-0.3,0.1-0.6,0.1-0.9,0.1c-1-0.2-2-0.7-2.7-1.4
		c-0.3-0.3-0.6-0.7-0.9-1c-0.9-0.8-2.1-1-3.2-1.5c-0.8-0.3-1.7-0.8-2-1.6c-0.2-0.5-0.2-1.2,0-1.7s0.4-0.9,0.4-1.5
		c0-0.5-0.3-1-0.5-1.4c-0.2-0.5-0.1-1,0.5-1.3c1.2-0.7,3-0.2,3.9,0.7C507.4,1260.2,508.3,1260.8,509.3,1261.2L509.3,1261.2z"/>
	<path class="st35" d="M510,1260.6c0.7,0.3,1.4,0.6,1.6,1.3c0.2,0.5,0,1.1,0.2,1.5c0.1,0.3,0.3,0.4,0.5,0.7c0.8,1.2-0.3,3.1,0.6,4.2
		c0.1,0.2,0.3,0.3,0.3,0.5c0.1,0.3-0.1,0.6-0.4,0.7c-0.3,0.1-0.6,0.1-0.9,0.1c-1-0.2-2-0.7-2.7-1.4c-0.3-0.3-0.6-0.7-0.9-1
		c-0.9-0.8-2.1-1-3.2-1.5c-0.9-0.3-1.7-0.8-2-1.6c-0.2-0.5-0.2-1.2,0-1.7s0.4-0.9,0.4-1.5c0-0.5-0.3-0.9-0.5-1.4
		c-0.2-0.6-0.1-1,0.5-1.3c1.2-0.7,3-0.2,3.9,0.7C508.1,1259.5,509,1260.1,510,1260.6L510,1260.6z"/>
	<path class="st35" d="M589.5,1227.6c-1,0.5-2,1.1-2.5,2.2c-0.3,0.6-0.3,1.3-0.3,1.9c-0.1,1.6-0.1,3.2-0.2,4.8c0,0.5,0,1,0.2,1.4
		s0.5,0.7,0.8,0.9c2.8,2.4,4.3,4.2,8.2,5.5c4.8-2,7.3-6.2,10.3-10.6c0.3-0.5-5.4-9.1-6.4-9.9
		C597.3,1221.7,591.7,1226.3,589.5,1227.6L589.5,1227.6z"/>
	<path class="st35" d="M591.3,1226.4c-1,0.5-2,1.2-2.5,2.2c-0.3,0.6-0.3,1.2-0.3,1.9c-0.1,1.6-0.1,3.2-0.2,4.8c0,0.5,0,1,0.2,1.4
		s0.5,0.7,0.8,0.9c2.7,2.4,4.3,4.2,8.2,5.5c4.8-2,7.3-6.2,10.3-10.5c0.3-0.5-5.4-9.1-6.4-10C599.1,1220.6,593.5,1225.2,591.3,1226.4
		L591.3,1226.4z"/>
	<path class="st35" d="M594.4,1264.9c0.5,0.1,1.1,0.3,1.6,0.5c0.1,0,0.2,0.1,0.3,0.1c0.1,0.1,0.1,0.2,0.1,0.3c0.3,1,0.6,2.1,0.9,3.1
		c0.1,0.2,0.1,0.5,0,0.7c-0.6-0.2-1.2-0.4-1.8-0.5c-0.8-0.3-1.6-0.5-2.1-1.1c-0.4-0.4-0.7-1-0.9-1.5
		C592,1265,593.2,1264.6,594.4,1264.9L594.4,1264.9z"/>
	<path class="st35" d="M595,1264.7c0.5,0.1,1.1,0.3,1.6,0.5c0.1,0,0.2,0.1,0.2,0.1c0.1,0.1,0.1,0.2,0.1,0.3c0.3,1,0.6,2.1,0.9,3.1
		c0.1,0.3,0.1,0.5,0,0.7c-0.6-0.2-1.2-0.4-1.8-0.6c-0.7-0.2-1.6-0.5-2.1-1.1c-0.4-0.4-0.7-1-0.9-1.5
		C592.6,1264.8,593.9,1264.5,595,1264.7L595,1264.7z"/>
	<path class="st36" d="M613.9,1358.1c0.8,2.2,1,4.7,1.6,7c0.7,2.3,2.1,4.6,4.4,5.3c1.1,0.3,2.3,0.2,3.5,0.3c2.4,0.3,4.8,1.6,7.2,1
		c1.7-0.4,3.1-1.6,4.4-2.9c1.6-1.6,3.3-3.1,4.9-4.6c0.6-0.6,1.2-1.2,1.5-2s0.1-1.7-0.1-2.6c-0.9-4.1-2.1-8.8-5.9-10.8
		c-1.8-0.9-4-1.1-6.1-1.2c-4.4-0.2-11-1.8-15.1-0.2C609.5,1349.3,612.7,1354.9,613.9,1358.1L613.9,1358.1z"/>
	<path class="st35" d="M615.4,1356.8c0.9,2.3,1,4.7,1.6,7c0.7,2.3,2.1,4.6,4.4,5.3c1.1,0.3,2.3,0.2,3.5,0.3c2.4,0.3,4.8,1.5,7.2,1
		c1.7-0.4,3.1-1.6,4.4-2.9c1.6-1.5,3.3-3.1,4.9-4.6c0.6-0.6,1.2-1.2,1.5-2c0.3-0.9,0.1-1.8-0.1-2.6c-0.9-4.1-2.1-8.8-5.9-10.8
		c-1.8-1-4-1.1-6.1-1.2c-4.4-0.2-11-1.8-15.1-0.2C611,1348.1,614.2,1353.6,615.4,1356.8L615.4,1356.8z"/>
	<path class="st35" d="M576.7,1250.5c0.1-0.1,0.2-0.1,0.3-0.2s0.1-0.1,0.1-0.2c0.3-0.4,0.6-0.8,0.7-1.4v-0.3c0-0.2,0-0.4,0-0.6
		c0-0.4,0-0.8,0.1-1.2c0-0.7,0-1.3-0.4-1.9c-0.3-0.5-0.9-1-1.4-1.4c-0.9-0.7-2.1-0.7-3.2-0.8c-1.9,0.5-3.7,1-5.6,1.5
		c-0.8,0.3-1.6,0.7-2.4,1c-0.5,0.3-1,0.5-1.4,0.8c0,0-0.2,0.1-0.2,0.2c-0.1,0.1-0.1,0.1-0.2,0.2c-0.1,0.1-0.2,0.2-0.3,0.3
		c0,0.1-0.1,0.1-0.1,0.1c0,0.1-0.1,0.3-0.1,0.3c0,0.1-0.1,0.2-0.1,0.2c0.1-0.3,0,0,0,0.1v0.1c0,0,0,0,0,0.1s0,0.1,0,0.1l0.1,0.1
		c0.1,0.1,0.2,0.3,0.3,0.4l0.2,0.2c0.1,0.1,0.2,0.2,0.3,0.3c0.1,0.2,0.3,0.3,0.5,0.5c1.5,1,3.1,1.9,4.7,2.7c1.8,0.3,3.5,0.8,5.3,0.4
		C574.9,1251.6,575.8,1251.1,576.7,1250.5L576.7,1250.5z"/>
	<path class="st35" d="M578,1249.6c0.1-0.1,0.2-0.1,0.3-0.2c0-0.1,0.1-0.1,0.1-0.1c0.3-0.4,0.5-0.8,0.7-1.4v-0.3c0-0.2,0-0.4,0-0.6
		c0-0.4,0-0.8,0.1-1.2c0-0.7,0-1.3-0.4-2c-0.3-0.5-0.9-1-1.4-1.4c-1-0.7-2.1-0.8-3.2-0.8c-1.9,0.5-3.7,1-5.6,1.5
		c-0.8,0.3-1.6,0.7-2.4,1c-0.5,0.2-1,0.5-1.4,0.8l-0.2,0.1c-0.1,0.1-0.1,0.1-0.2,0.2c-0.1,0.1-0.2,0.2-0.3,0.3
		c0,0.1-0.1,0.1-0.1,0.1c-0.1,0.1-0.1,0.3-0.1,0.3c0,0.1,0,0.2-0.1,0.2c0.1-0.3,0,0,0,0.1c0,0,0,0,0,0.1c0,0,0,0,0.1,0.1
		c0,0.1,0,0.1,0,0.1s0,0.1,0.1,0.1c0.1,0.1,0.1,0.3,0.3,0.4c0,0,0.1,0.2,0.2,0.2c0.1,0.1,0.2,0.2,0.3,0.3c0.1,0.1,0.3,0.3,0.5,0.5
		c1.5,1,3.1,1.9,4.7,2.6c1.8,0.3,3.5,0.9,5.3,0.4C576.2,1250.8,577,1250.2,578,1249.6L578,1249.6z"/>
	<path class="st36" d="M582.7,1315.9c-0.1-0.8,0.3-1.6,0.8-2.3c0-0.1,0.1-0.1,0.1-0.1c0.1,0,0.1,0,0.1,0.1c0.6,0.4,1,1,1.4,1.6
		c0.4,0.7,0.3,1.2,0.5,1.9c0.2,1,1,1.8,0,2.6c-0.7,0.6-1.7,0.5-2.4-0.1c-0.5-0.5-0.6-1-0.5-1.7
		C582.9,1317,582.8,1316.7,582.7,1315.9L582.7,1315.9z"/>
	<path class="st35" d="M583.1,1315.5c-0.3-0.8,0.1-1.7,0.5-2.4c0-0.1,0-0.1,0.1-0.1s0.1,0,0.1,0.1c0.6,0.3,1.1,0.9,1.5,1.4
		c0.5,0.6,0.4,1.1,0.7,1.8c0.3,0.9,1.2,1.7,0.3,2.6c-0.7,0.7-1.7,0.7-2.4,0.1c-0.6-0.5-0.7-0.9-0.7-1.6
		C583.3,1316.5,583.3,1316.2,583.1,1315.5L583.1,1315.5z"/>
	<path class="st36" d="M602,1341.5c0.1,0,0.2,0.1,0.4,0.1c0.1,0,0.1,0,0.2,0c0.5,0,1,0,1.5-0.3l0.3-0.2c0.2-0.1,0.3-0.2,0.5-0.3
		c0.3-0.2,0.7-0.4,1-0.7c0.6-0.4,1.1-0.8,1.3-1.4s0.3-1.3,0.3-1.9c0-1.2-0.6-2.1-1.3-3.1c-1.5-1.2-3-2.4-4.5-3.7
		c-0.7-0.5-1.5-0.9-2.2-1.3c-0.5-0.3-1-0.5-1.5-0.7l-0.2-0.1c-0.1,0-0.2,0-0.3-0.1c-0.1,0-0.3,0-0.4-0.1c-0.1,0-0.1,0-0.1,0
		c-0.1,0-0.3,0.1-0.3,0.1c-0.1,0-0.1,0.1-0.2,0.1c0.3-0.1,0,0-0.1,0.1c0,0,0,0-0.1,0c0,0,0,0-0.1,0.1c0,0.1-0.1,0.1-0.1,0.1
		s0,0.1-0.1,0.1c-0.1,0.1-0.1,0.3-0.2,0.4c0,0.1-0.1,0.3-0.1,0.3c0,0.1-0.1,0.3-0.1,0.5s-0.1,0.4-0.1,0.6c0.1,1.8,0.3,3.6,0.6,5.4
		c0.8,1.6,1.4,3.4,2.8,4.5C600,1340.7,600.9,1341,602,1341.5L602,1341.5z"/>
	<path class="st35" d="M603.1,1340.6c0.1,0.1,0.2,0.1,0.3,0.1s0.1,0,0.2,0c0.5,0,1,0,1.5-0.2c0,0,0.3-0.1,0.3-0.2
		c0.2-0.1,0.3-0.2,0.5-0.3c0.3-0.2,0.7-0.4,1-0.6c0.6-0.4,1.1-0.7,1.4-1.4c0.2-0.6,0.4-1.3,0.4-1.9c0-1.2-0.6-2.2-1.2-3.1
		c-1.5-1.2-2.9-2.5-4.4-3.8c-0.7-0.5-1.5-1-2.2-1.4c-0.5-0.3-1-0.6-1.5-0.8l-0.2-0.1c-0.1,0-0.2-0.1-0.3-0.1s-0.3,0-0.4-0.1
		c-0.1,0-0.1,0-0.1,0c-0.1,0-0.3,0.1-0.3,0.1c-0.1,0-0.1,0-0.2,0.1c0.3-0.1,0,0-0.1,0.1l0,0c0,0,0,0-0.1,0.1l-0.1,0.1
		c0,0,0,0.1-0.1,0.1c-0.1,0.1-0.1,0.3-0.2,0.4c0,0.1-0.1,0.3-0.1,0.3c-0.1,0.1-0.1,0.3-0.1,0.5c-0.1,0.2-0.1,0.4-0.1,0.6
		c0,1.8,0.2,3.6,0.5,5.4c0.8,1.6,1.3,3.4,2.7,4.6C601.1,1339.8,602,1340.2,603.1,1340.6L603.1,1340.6z"/>
	<path class="st36" d="M618.1,1376.5c-0.1,0.4-0.3,0.8-0.3,1.2c0,0.2,0.1,0.4,0.1,0.6c0,0.4-0.1,0.9-0.3,1.2c-0.4,0.7-1.1,1-1.8,1.4
		c-0.3,0.1-0.5,0.3-0.8,0.3s-0.6-0.1-0.9-0.3c-0.7-0.3-1.3-0.2-1.6-1c-0.1-0.3-0.2-0.6-0.2-0.9c-0.1-0.6-0.7-0.9-0.9-1.4
		c-0.1-0.1-0.1-0.3-0.1-0.4c0-0.2,0.1-0.4,0.2-0.6c0.8-1.6,0.7-4.6,3.3-4c1,0.2,1.5,0.9,2,1.6
		C617.3,1375.1,618.4,1375.2,618.1,1376.5L618.1,1376.5z"/>
	<path class="st35" d="M618.6,1375.8c-0.1,0.4-0.3,0.8-0.3,1.2c0,0.2,0.1,0.4,0.1,0.6c0,0.4-0.1,0.9-0.3,1.2c-0.4,0.7-1.1,1-1.8,1.4
		c-0.3,0.1-0.5,0.3-0.9,0.3c-0.3,0-0.6-0.1-0.9-0.3c-0.7-0.3-1.3-0.2-1.6-1c-0.1-0.3-0.2-0.6-0.2-0.9c-0.1-0.6-0.7-0.9-0.9-1.4
		c-0.1-0.1-0.1-0.3-0.1-0.4c0-0.2,0.1-0.4,0.2-0.6c0.8-1.6,0.7-4.6,3.3-4c1,0.3,1.4,0.9,2,1.6
		C617.8,1374.4,618.9,1374.5,618.6,1375.8L618.6,1375.8z"/>
	<path class="st36" d="M593.6,1391.4c0.5-0.2,1.1-0.5,1.6-0.7c2.2-1,4.6-1.8,6.6-3.4c2-1.5,2.6-3.5,2.8-5.9
		c0.5-4.8-0.5-9.9-2.7-14.2c-1.3-2.5-3.2-4.6-4.8-6.9c-1.8-2.3-3.3-4.7-4.5-7.3c-1.1-2.6-1.9-5.2-3.1-7.7c-1.2-2.4-2.9-4.4-4.7-6.3
		c-3.6-3.8-7.8-6.9-11.6-10.5c-3.7-3.5-6.5-7.6-9.3-11.8c-2.8-4.3-5.8-8.1-10.5-10.3c-4.6-2.2-9.7-3.1-14.3-5.3
		c-5.1-2.4-9.3-6.3-13.8-9.4c-4.6-3.2-9.7-5.6-14.9-7.6c-5.3-2-10.8-3.5-16.4-4.5c-5.5-0.9-11-1-16.6-1.1
		c-11.1-0.2-22.2-0.1-33.1,2.1c-5.4,1.1-10.7,2.6-15.6,4.9c-2.5,1.1-4.8,2.4-7.2,3.8c-1.8,1-3.7,2.1-5.3,3.5
		c-1.6,1.5-2.8,3.3-3.1,5.6c-0.1,0.7-0.1,1.3-0.2,2c1.5,3.2,2.9,6.5,4.5,9.7c1.2,2.6,2.6,5.2,4.3,7.6c1.7,2.4,3.6,4.6,5.6,6.7
		c3.9,4.3,8,8.4,12.4,12.2c8.8,7.6,18.2,14.7,28,21c9.5,6.1,19.6,11.1,30.4,14.5c5.9,1.9,11.9,3.3,17.8,5.1
		c5.9,1.7,11.8,3.5,17.8,5.2c11.9,3.4,24,6.1,36.3,7.5C577.8,1390.7,585.7,1391.3,593.6,1391.4L593.6,1391.4z"/>
	<path class="st35" d="M594.1,1387.6c0.5-0.2,1.1-0.5,1.6-0.7c2.2-1,4.7-1.8,6.6-3.4c1.9-1.5,2.6-3.5,2.8-6
		c0.4-4.8-0.5-9.9-2.7-14.2c-1.3-2.5-3.2-4.6-4.8-6.9c-1.7-2.3-3.3-4.7-4.4-7.4c-1.1-2.6-1.9-5.2-3.1-7.7c-1.2-2.4-2.9-4.5-4.7-6.3
		c-3.6-3.8-7.8-6.9-11.6-10.5c-3.7-3.5-6.5-7.6-9.4-11.9c-2.7-4.2-5.8-8.1-10.4-10.3c-4.6-2.2-9.7-3.1-14.3-5.2
		c-5.1-2.4-9.3-6.3-13.8-9.4c-4.6-3.2-9.7-5.6-14.9-7.6c-5.3-2-10.8-3.5-16.4-4.5c-5.5-1-11-1.1-16.6-1.2c-11-0.2-22.2,0-33.1,2.2
		c-5.4,1.1-10.7,2.6-15.7,4.9c-2.5,1.1-4.8,2.5-7.1,3.8c-1.8,1-3.7,2.1-5.3,3.5c-1.6,1.5-2.8,3.3-3.1,5.6c-0.1,0.7-0.1,1.3-0.2,2
		c1.5,3.2,2.9,6.5,4.5,9.7c1.3,2.6,2.6,5.2,4.3,7.6c1.7,2.4,3.6,4.6,5.6,6.7c3.9,4.3,8.1,8.3,12.4,12.1c8.8,7.7,18.2,14.7,28,21
		c9.5,6.1,19.6,11.1,30.4,14.5c5.9,1.9,11.9,3.3,17.8,5.1c5.9,1.8,11.8,3.6,17.7,5.2c11.9,3.4,24,6.1,36.3,7.5
		C578.3,1387,586.2,1387.5,594.1,1387.6L594.1,1387.6z"/>
	<path class="st36" d="M595.7,1280.2c-1.3-2.2-2.7-4.6-4.4-6.5c-1.6-1.8-3.5-3.1-5.4-4.5c-1.5-1-3-2-4.6-3c-1.9-0.1-3.7-0.4-5.4-1.1
		c-1.8-0.8-3.5-1.7-5.2-2.6c-2.7-1.4-5.5-2.5-8.1-4c-1.8-0.5-3.5-1-5.3-1.6c-4.1-1.1-8.1-2-12.3-2.4c-2.5,0.5-5.1,1-7.6,1.4
		c-0.3,0.1-0.7,0.1-1,0.1c-2.8,0.7-5.6,1.3-8.4,2.1c-2.7,0.8-5.5,1.8-7.4,3.9c-2.4,2.6-2.5,5.8-1.7,9.1c0.3,0.7,0.7,1.3,1.1,1.8
		c0.9,1,1.8,1.9,2.6,2.8c0.3,0.3,0.7,0.7,1,1c2.2,1.1,4.5,2.4,6.6,3.7c2.5,1.7,4.9,3.6,7.3,5.4c2.2,1.7,4.5,3.3,7.1,4.5
		c2.4,1.2,5,1.9,7.6,2.7c1.3,0.4,2.6,0.9,3.9,1.4c2.2,0.2,4.2,1.1,6.2,2c2.2,1,4.3,1.9,6.6,2.7c4.5,1.5,9.2,2.6,13.9,2.9
		c4.4,0.3,8.6-0.4,12.9-1.3c0.4-0.1,0.8-0.2,1.2-0.3c1-1.6,1.1-4,1.3-5.9c0.2-2.4,0.5-4.9,0.8-7.3
		C598,1284.8,597,1282.4,595.7,1280.2L595.7,1280.2z"/>
	<path class="st35" d="M595.7,1277.6c-1.3-2.2-2.7-4.6-4.4-6.5c-1.6-1.8-3.5-3.1-5.4-4.5c-1.5-1-3-2-4.6-3c-1.9-0.1-3.7-0.4-5.4-1.1
		c-1.8-0.8-3.5-1.7-5.2-2.6c-2.7-1.4-5.5-2.5-8.1-4c-1.8-0.5-3.5-1-5.3-1.6c-4.1-1.1-8.1-2-12.3-2.4c-2.5,0.5-5.1,1-7.6,1.4
		c-0.3,0.1-0.7,0.1-1,0.1c-2.8,0.6-5.6,1.3-8.4,2.1c-2.7,0.8-5.5,1.8-7.4,3.9c-2.4,2.6-2.5,5.8-1.7,9.1c0.3,0.7,0.7,1.3,1.1,1.8
		c0.9,1,1.8,1.9,2.6,2.8c0.3,0.3,0.7,0.7,1,1c2.2,1.1,4.5,2.4,6.6,3.7c2.5,1.7,4.9,3.6,7.3,5.4c2.2,1.7,4.5,3.3,7.1,4.5
		c2.4,1.2,5,1.9,7.6,2.7c1.3,0.4,2.6,0.9,3.9,1.4c2.2,0.2,4.2,1.1,6.2,2c2.2,1,4.3,1.9,6.6,2.7c4.5,1.5,9.2,2.6,13.9,2.9
		c4.4,0.3,8.6-0.4,12.9-1.3c0.4-0.1,0.8-0.2,1.2-0.3c1-1.6,1.1-4,1.3-5.9c0.2-2.5,0.5-4.9,0.8-7.4
		C598,1282.2,597,1279.8,595.7,1277.6L595.7,1277.6z"/>
	<path class="st37" d="M701,1119.6c9-53.1,53.7,68.5,48,100.4c-0.1,46.4-32.7,154.5-80.7,135.3
		C737.4,1303.6,754.1,1189.4,701,1119.6L701,1119.6z"/>
	<path class="st37" d="M499.4,1249.7c91.8,0,166.9-71,173.6-161C541,935,220.7,1228.5,499.4,1249.7L499.4,1249.7z M384.9,1227.4
		c-3.1,194.8,305.3,192,235.4,125.8c-26.1-30.2-41.1-66.2-45.2-103C515.1,1277.6,435.5,1267.6,384.9,1227.4L384.9,1227.4z
		 M689.4,1081.7c3.4,140.1-187.5,153-32.4,284.2c13.7,7.2,9.3,11.4-2.2,18.4C238.5,1543.8,319.1,832.2,689.4,1081.7L689.4,1081.7z"
		/>
	<path class="st38" d="M496.3,1120.3c-5.4-27.1-36.8,10-20.4,34.8c5.8,8.8,14.1,0.5,18.1-11C496.3,1137.3,497.9,1128.3,496.3,1120.3
		L496.3,1120.3z"/>
	<path class="st38" d="M605.8,1104.1c1.1-7.9-28.5-23.8-21.2-8.7c2.6,5.4,10.1,9.8,15.1,10.7
		C602.6,1106.7,605.4,1106.4,605.8,1104.1L605.8,1104.1z"/>
	<path class="st38" d="M541.4,1205c4.7-5.2-9-31.6-11.2-16.9c-0.8,5.2,2.5,12.2,5.7,15.4C537.8,1205.4,540,1206.6,541.4,1205
		L541.4,1205z"/>
	<path class="st38" d="M532.5,1321.2c-10.3-13.2-17.2,15.5-1.5,24.4c5.6,3.1,7.8-3.6,6.7-10.9
		C537.2,1330.3,535.6,1325.1,532.5,1321.2L532.5,1321.2z"/>
	<path class="st38" d="M518.2,1348.7c-1.6-4.6-21.9-5-13.8,1.1c2.9,2.2,8.2,2.5,11.1,1.6C517.3,1350.9,518.7,1350,518.2,1348.7
		L518.2,1348.7z"/>
	<path class="st38" d="M491,1323.8c1.1-4.1-13.5-14.6-10.7-6.1c1,3,4.7,5.9,7.3,6.7C489.2,1325,490.7,1325,491,1323.8L491,1323.8z"
		/>
	<path class="st38" d="M682.3,1219.3c4.6-0.7,8.2-3.6,7.1-9.7c-1-5.7-8.5-7.8-14.1-6.5c-0.1,0-0.1,0.1-0.2,0.1
		c-3.3,0.8-6.7,2.5-8,5.6C664.3,1215.5,674.7,1220.4,682.3,1219.3L682.3,1219.3z"/>
	<path class="st38" d="M565.6,1277c-1.6-4.6-22-5-13.9,1.1c2.9,2.2,8.2,2.5,11.1,1.6C564.7,1279.3,566.1,1278.3,565.6,1277
		L565.6,1277z"/>
	<path class="st38" d="M702.2,1291.2c-8.7-8-25,17.8-8.7,20.8c5.8,1,10.3-5.2,11.2-11C705.2,1297.5,704.7,1293.6,702.2,1291.2
		L702.2,1291.2z"/>
</g>
</svg>
